<svg width="185" height="30" viewBox="0 0 185 30" fill="none" xmlns="http://www.w3.org/2000/svg">
<path d="M13.0982 23.2462C10.669 23.2462 8.60082 22.8605 6.89379 22.089C5.18676 21.3176 3.89827 20.2671 3.02834 18.9376C2.15841 17.5917 1.72345 16.0734 1.72345 14.3828C1.72345 12.6921 2.15841 11.1821 3.02834 9.85256C3.89827 8.50663 5.18676 7.44794 6.89379 6.67649C8.60082 5.90504 10.669 5.51932 13.0982 5.51932C15.5274 5.51932 17.5956 5.90504 19.3026 6.67649C21.0096 7.44794 22.2981 8.50663 23.1681 9.85256C24.038 11.1821 24.473 12.6921 24.473 14.3828C24.473 16.0734 24.038 17.5917 23.1681 18.9376C22.2981 20.2671 21.0096 21.3176 19.3026 22.089C17.5956 22.8605 15.5274 23.2462 13.0982 23.2462ZM13.0982 20.341C14.7232 20.341 16.1183 20.0783 17.2837 19.5531C18.4491 19.0279 19.3272 18.3139 19.9181 17.4111C20.5254 16.5083 20.8291 15.4989 20.8291 14.3828C20.8291 13.2666 20.5254 12.2572 19.9181 11.3544C19.3272 10.4517 18.4491 9.73766 17.2837 9.21242C16.1183 8.68718 14.7232 8.42456 13.0982 8.42456C11.4732 8.42456 10.0781 8.68718 8.91268 9.21242C7.74731 9.73766 6.86096 10.4517 6.25365 11.3544C5.66276 12.2572 5.36731 13.2666 5.36731 14.3828C5.36731 15.4989 5.66276 16.5083 6.25365 17.4111C6.86096 18.3139 7.74731 19.0279 8.91268 19.5531C10.0781 20.0783 11.4732 20.341 13.0982 20.341ZM27.5617 23V9.45863H31.0086V11.6006H31.1563C31.5502 10.9933 32.2068 10.4435 33.126 9.95104C34.0451 9.45863 35.1202 9.21242 36.3513 9.21242C38.2553 9.21242 39.7161 9.69663 40.7338 10.665C41.7514 11.617 42.2602 12.9384 42.2602 14.629V23H38.8133V15.0475C38.8133 14.0627 38.5097 13.2912 37.9024 12.7332C37.2951 12.1587 36.4333 11.8715 35.3172 11.8715C34.2503 11.8715 33.3311 12.1177 32.5597 12.6101C31.8047 13.1025 31.2876 13.6441 31.0086 14.235V23H27.5617ZM48.5306 23H45.0837V5.27311H48.5306V23ZM57.2102 27.6779H53.6894L56.5947 21.7197L49.7501 9.45863H53.5171L58.195 18.0759H58.3181L62.5036 9.45863H66.0736L57.2102 27.6779Z" fill="#0E0E0E"/>
<g clip-path="url(#clip0_23420_1368)">
<path d="M83 3L85.4625 8.23421L90.7135 5.80747L89.2354 11.4L94.8177 12.9162L90.0906 16.2503L93.3923 21L87.6281 20.5155L87.1042 26.2763L83 22.2L78.8958 26.2763L78.3719 20.5155L72.6077 21L75.9094 16.2503L71.1823 12.9162L76.7646 11.4L75.2865 5.80747L80.5375 8.23421L83 3Z" fill="#0E0E0E"/>
</g>
<path d="M108.666 23.2462C107.206 23.2462 105.909 22.9426 104.776 22.3352C103.66 21.7279 102.79 20.899 102.167 19.8486C101.543 18.7817 101.231 17.5752 101.231 16.2293C101.231 14.8834 101.543 13.6852 102.167 12.6347C102.79 11.5678 103.66 10.7307 104.776 10.1234C105.909 9.51608 107.206 9.21242 108.666 9.21242C109.848 9.21242 110.923 9.4258 111.892 9.85256C112.877 10.2629 113.599 10.7225 114.058 11.2313H114.206V5.27311H117.653V23H114.206V21.2273H114.058C113.599 21.7361 112.877 22.2039 111.892 22.6307C110.923 23.041 109.848 23.2462 108.666 23.2462ZM109.774 20.5379C110.759 20.5379 111.654 20.3492 112.458 19.9717C113.262 19.5777 113.845 19.151 114.206 18.6914V13.7672C113.845 13.3077 113.262 12.8891 112.458 12.5116C111.654 12.1177 110.759 11.9207 109.774 11.9207C108.232 11.9207 107.017 12.3228 106.131 13.1271C105.244 13.915 104.801 14.949 104.801 16.2293C104.801 17.5096 105.244 18.5519 106.131 19.3561C107.017 20.144 108.232 20.5379 109.774 20.5379ZM122.337 8.4738C121.647 8.4738 121.105 8.30966 120.712 7.98139C120.318 7.65311 120.121 7.20994 120.121 6.65187C120.121 6.0938 120.318 5.65063 120.712 5.32235C121.105 4.99408 121.647 4.82994 122.337 4.82994C123.026 4.82994 123.568 4.99408 123.961 5.32235C124.355 5.65063 124.552 6.0938 124.552 6.65187C124.552 7.20994 124.355 7.65311 123.961 7.98139C123.568 8.30966 123.026 8.4738 122.337 8.4738ZM120.613 23V9.45863H120.761H122.337H123.888H124.06V23H120.613ZM134.438 27.9241C133.158 27.9241 131.935 27.7764 130.77 27.481C129.621 27.1855 128.735 26.8572 128.111 26.4961V23.4678C128.735 23.8781 129.588 24.2474 130.671 24.5757C131.755 24.9204 132.887 25.0928 134.069 25.0928C135.858 25.0928 137.204 24.707 138.107 23.9356C139.026 23.1641 139.486 22.1137 139.486 20.7841V20.3902H139.338C138.895 20.899 138.181 21.3586 137.196 21.769C136.227 22.1793 135.144 22.3845 133.946 22.3845C132.485 22.3845 131.197 22.0972 130.081 21.5228C128.981 20.9483 128.127 20.1604 127.52 19.1592C126.929 18.1579 126.634 17.0418 126.634 15.8108C126.634 14.5633 126.929 13.439 127.52 12.4377C128.127 11.4365 128.981 10.6486 130.081 10.0741C131.197 9.49966 132.485 9.21242 133.946 9.21242C135.144 9.21242 136.227 9.4258 137.196 9.85256C138.164 10.2629 138.878 10.7225 139.338 11.2313H139.486V9.45863H142.932V20.7841C142.932 22.1957 142.604 23.435 141.948 24.5019C141.308 25.5852 140.347 26.4223 139.067 27.0132C137.803 27.6205 136.26 27.9241 134.438 27.9241ZM134.882 19.6762C135.899 19.6762 136.818 19.4875 137.639 19.1099C138.46 18.7324 139.075 18.3139 139.486 17.8543V13.7672C139.075 13.2912 138.452 12.8645 137.614 12.487C136.794 12.1095 135.883 11.9207 134.882 11.9207C133.371 11.9207 132.214 12.2736 131.41 12.9794C130.606 13.6688 130.204 14.6126 130.204 15.8108C130.204 16.9926 130.606 17.9363 131.41 18.6421C132.214 19.3315 133.371 19.6762 134.882 19.6762ZM147.619 8.4738C146.93 8.4738 146.388 8.30966 145.994 7.98139C145.6 7.65311 145.403 7.20994 145.403 6.65187C145.403 6.0938 145.6 5.65063 145.994 5.32235C146.388 4.99408 146.93 4.82994 147.619 4.82994C148.308 4.82994 148.85 4.99408 149.244 5.32235C149.638 5.65063 149.835 6.0938 149.835 6.65187C149.835 7.20994 149.638 7.65311 149.244 7.98139C148.85 8.30966 148.308 8.4738 147.619 8.4738ZM145.895 23V9.45863H146.043H147.619H149.17H149.342V23H145.895ZM158.317 23.2462C156.709 23.2462 155.453 22.8112 154.55 21.9413C153.664 21.055 153.221 19.7665 153.221 18.0759V11.4283H150.685V9.45863H151.916C152.359 9.45863 152.687 9.34373 152.901 9.11394C153.114 8.88415 153.221 8.52304 153.221 8.03063V6.18408H156.668V9.45863H160.73V11.4283H156.668V18.1005C156.668 18.8391 156.865 19.4136 157.259 19.8239C157.653 20.2179 158.194 20.4148 158.884 20.4148C159.589 20.4148 160.205 20.3163 160.73 20.1194V22.9015C160.254 23.0328 159.844 23.1231 159.499 23.1723C159.154 23.2216 158.761 23.2462 158.317 23.2462ZM167.223 23.2462C165.532 23.2462 164.236 22.8851 163.333 22.1629C162.43 21.4243 161.979 20.4723 161.979 19.3069C161.979 18.0102 162.52 16.9761 163.604 16.2047C164.687 15.4332 166.402 15.0475 168.749 15.0475C170.128 15.0475 171.17 14.9901 171.876 14.8752C172.582 14.7603 173.05 14.6126 173.28 14.432C173.509 14.235 173.624 13.997 173.624 13.718C173.624 13.242 173.304 12.8481 172.664 12.5362C172.04 12.2079 170.965 12.0438 169.439 12.0438C168.208 12.0438 166.985 12.2161 165.77 12.5608C164.572 12.8891 163.62 13.2666 162.914 13.6934V10.6897C163.522 10.3121 164.441 9.97566 165.672 9.68022C166.903 9.36835 168.241 9.21242 169.685 9.21242C174.609 9.21242 177.071 10.7717 177.071 13.8904V23H173.624V20.9072H173.55C173.009 21.4981 172.172 22.0398 171.039 22.5322C169.907 23.0082 168.634 23.2462 167.223 23.2462ZM168.454 20.5379C169.669 20.5379 170.735 20.3574 171.655 19.9963C172.574 19.6188 173.23 19.2002 173.624 18.7406V16.1308C173.296 16.3278 172.82 16.5001 172.196 16.6479C171.573 16.7792 170.53 16.8612 169.069 16.8941C167.822 16.9105 166.919 17.091 166.361 17.4357C165.82 17.7804 165.549 18.2236 165.549 18.7652C165.549 19.2741 165.787 19.7008 166.263 20.0455C166.755 20.3738 167.486 20.5379 168.454 20.5379ZM183.347 23H179.9V5.27311H183.347V23Z" fill="#0E0E0E"/>
<defs>
<clipPath id="clip0_23420_1368">
<rect width="24" height="24" fill="white" transform="translate(71 3)"/>
</clipPath>
</defs>
</svg>
