<svg width="90" height="90" viewBox="0 0 90 90" fill="none" xmlns="http://www.w3.org/2000/svg">
<rect width="90" height="90" rx="20" fill="#00FFA9"/>
<path d="M35.5107 37.5398C35.1161 37.1791 34.7876 36.8558 34.5253 36.57C32.5562 34.4297 30.2775 36.3386 29.884 38.5197C29.8783 38.5481 29.864 38.5731 29.8412 38.5946C29.8036 38.6286 29.7899 38.6207 29.8002 38.5708C30.2142 36.5144 31.3005 35.1284 33.0592 34.4127C34.9718 33.6335 37.2557 33.9533 38.7321 35.4097C40.1885 36.8456 41.6432 38.2844 43.0962 39.726C43.1088 39.7396 43.1054 39.7476 43.086 39.7498C43.0814 39.7498 43.0768 39.7504 43.0723 39.7515C43.0609 39.7538 43.0517 39.7515 43.0449 39.7447C42.2751 39.0869 41.4009 38.7545 40.4223 38.7477C39.6901 38.7409 38.8963 39.1101 38.135 39.0778C36.7938 39.0216 36.3935 38.3479 35.5107 37.5398Z" fill="#0E0E0E"/>
<path d="M61.2378 53.4856C61.2241 53.4711 61.2076 53.4596 61.1893 53.4518C61.1709 53.444 61.1511 53.4401 61.131 53.4402C61.1109 53.4404 61.0911 53.4446 61.0727 53.4527C61.0542 53.4608 61.0376 53.4726 61.0239 53.4873C60.4422 54.1134 59.7939 54.7514 59.048 55.1478C55.9258 56.8117 53.618 55.7433 51.4505 53.3631C51.4094 53.3177 51.3684 53.3177 51.3273 53.3631C50.1708 54.6238 49.1478 55.5459 47.4404 55.8811C44.9992 56.3609 43.3312 54.9504 41.7487 53.3597C41.7364 53.3475 41.7218 53.3379 41.7058 53.3314C41.6898 53.325 41.6727 53.3217 41.6555 53.3218C41.6383 53.322 41.6213 53.3256 41.6056 53.3324C41.5899 53.3392 41.5757 53.349 41.564 53.3614C40.9241 54.0283 40.2621 54.7497 39.482 55.1954C36.3581 56.9818 34.2145 55.5085 32.0162 53.3018C32.0069 53.2923 31.9957 53.2847 31.9834 53.2796C31.9711 53.2744 31.9579 53.2717 31.9447 53.2717C31.9314 53.2717 31.9183 53.2744 31.9062 53.2796C31.8941 53.2847 31.8832 53.2923 31.8742 53.3018C31.0485 54.1434 30.5124 54.6589 30.2661 54.8484C28.431 56.2684 26.479 56.3677 24.4101 55.1461C23.7241 54.7395 22.9389 53.8854 22.2802 53.2304C18.6477 49.619 15.0072 46.0161 11.3587 42.4217C10.1732 41.2546 9.44439 41.1627 8.1904 42.2771C7.95432 42.4858 7.93778 42.4688 8.14079 42.226C9.21515 40.9364 10.5581 40.2553 12.1696 40.1827C14.2995 40.0857 15.8375 41.3907 17.1959 42.8725C17.2067 42.8844 17.2202 42.8936 17.2353 42.8994C17.2504 42.9053 17.2666 42.9075 17.2827 42.906C17.2988 42.9045 17.3143 42.8994 17.328 42.8909C17.3417 42.8824 17.3533 42.8709 17.3618 42.8572C19.011 40.1572 22.4753 39.3065 25.1424 41.2239C25.521 41.495 26.1129 42.0536 26.9181 42.8998C26.9706 42.9553 27.0174 42.9508 27.0584 42.8862C28.5776 40.4532 31.3764 39.4562 34.0264 40.7322C34.9946 41.1984 35.8911 42.1171 36.6815 42.927C36.7237 42.9712 36.7681 42.9729 36.8149 42.9321C37.4735 42.3468 38.1596 41.5727 38.784 41.1321C41.6889 39.0802 44.178 40.6234 46.2566 42.847C46.2752 42.8671 46.2979 42.8829 46.3232 42.8935C46.3484 42.9041 46.3757 42.9091 46.4031 42.9083C46.4305 42.9075 46.4574 42.9008 46.482 42.8888C46.5066 42.8768 46.5284 42.8596 46.5457 42.8385C47.5722 41.5863 49.1478 40.4736 50.7217 40.2457C52.9833 39.9173 54.4409 41.3175 55.972 42.8947C55.981 42.9039 55.9917 42.9112 56.0035 42.9163C56.0153 42.9214 56.0281 42.9241 56.041 42.9243C56.0538 42.9244 56.0666 42.922 56.0786 42.9172C56.0905 42.9125 56.1014 42.9054 56.1106 42.8964C57.0241 42.0236 57.7598 41.1372 59.0275 40.6115C61.804 39.4613 63.7423 40.8667 65.5352 42.7892C65.5495 42.8046 65.5668 42.817 65.5861 42.8256C65.6054 42.8342 65.6262 42.8388 65.6474 42.8391C65.6685 42.8394 65.6895 42.8355 65.709 42.8275C65.7285 42.8195 65.7462 42.8076 65.761 42.7926C66.1602 42.3922 66.581 41.9827 67.0236 41.5642C69.0902 39.6145 72.2482 39.3116 74.361 41.4009C75.8528 42.8754 77.3406 44.3539 78.8244 45.8363C78.8392 45.8522 78.8364 45.8641 78.8158 45.872C78.7987 45.8777 78.7839 45.876 78.7714 45.8669C77.9399 45.2284 77.0948 44.9181 76.236 44.9363C75.5466 44.9499 74.5338 45.3242 73.8204 45.2987C72.6828 45.2578 72.0515 44.499 71.2372 43.6194C71.1927 43.5707 71.1465 43.5695 71.0986 43.616L68.7822 45.8567C68.7389 45.8987 68.7383 45.9407 68.7805 45.9826C70.6567 47.8836 73.2057 50.4067 76.4276 53.5519C78.4207 55.4949 80.5814 53.5604 80.9355 51.415C80.9423 51.3753 80.9577 51.3714 80.9817 51.4031C80.9988 51.4247 81.0039 51.453 80.9971 51.4882C80.2153 55.3843 76.1026 57.2353 72.693 55.1002C72.3566 54.8892 71.7048 54.2756 70.7376 53.2593C70.7278 53.2492 70.716 53.2412 70.7029 53.2359C70.6898 53.2306 70.6757 53.228 70.6616 53.2283C70.6475 53.2286 70.6336 53.2318 70.6207 53.2378C70.6079 53.2437 70.5965 53.2522 70.5871 53.2627C69.6758 54.2722 68.9636 54.9255 68.4503 55.2227C65.6053 56.8679 63.2599 55.6191 61.2378 53.4856ZM68.4401 45.479L70.7034 43.2571C70.7376 43.223 70.7393 43.1884 70.7085 43.1533C69.2835 41.4962 67.4974 41.3703 66.1032 43.1754C66.069 43.2196 66.0712 43.261 66.11 43.2996L68.2553 45.4773C68.2673 45.4896 68.2816 45.4993 68.2974 45.5061C68.3132 45.5128 68.3302 45.5163 68.3473 45.5165C68.3645 45.5166 68.3816 45.5134 68.3975 45.507C68.4134 45.5006 68.4279 45.491 68.4401 45.479ZM41.5024 43.5786C40.2108 41.9368 38.5239 41.44 36.921 43.0206C36.8731 43.0682 36.8731 43.1153 36.921 43.1618L39.3964 45.6304C39.4455 45.6792 39.4951 45.6792 39.5453 45.6304L41.4955 43.7011C41.5343 43.6625 41.5366 43.6217 41.5024 43.5786ZM50.8483 43.2162C49.6251 41.7701 47.9229 41.6595 46.6295 43.1107C46.6122 43.1301 46.6029 43.1553 46.6035 43.1812C46.6042 43.2071 46.6147 43.2318 46.633 43.2502L48.9339 45.5437C48.9519 45.5616 48.9732 45.5758 48.9967 45.5855C49.0202 45.5952 49.0454 45.6001 49.0708 45.6001C49.0962 45.6001 49.1214 45.5952 49.1449 45.5855C49.1684 45.5758 49.1897 45.5616 49.2077 45.5437L51.1186 43.6739C51.1653 43.6285 51.1716 43.578 51.1374 43.5225C51.0621 43.3966 50.9082 43.2877 50.8483 43.2162ZM60.7553 43.3983C59.4859 41.896 57.8333 41.5251 56.3775 43.109C56.3545 43.1342 56.3422 43.1673 56.3432 43.2015C56.3441 43.2356 56.3583 43.2683 56.3826 43.2928L58.6477 45.5454C58.6978 45.5953 58.748 45.5958 58.7982 45.5471L60.7433 43.6671C60.8312 43.582 60.8352 43.4924 60.7553 43.3983ZM43.6511 45.71C43.6553 45.7057 43.6587 45.7006 43.661 45.695C43.6633 45.6894 43.6645 45.6835 43.6644 45.6774C43.6644 45.6714 43.6632 45.6654 43.6608 45.6599C43.6585 45.6543 43.655 45.6492 43.6507 45.645L41.6905 43.7159C41.6818 43.7073 41.67 43.7025 41.6578 43.7026C41.6455 43.7027 41.6338 43.7076 41.6252 43.7162L39.5795 45.7721C39.5753 45.7764 39.5719 45.7814 39.5696 45.787C39.5673 45.7926 39.5661 45.7986 39.5662 45.8046C39.5662 45.8107 39.5674 45.8166 39.5698 45.8222C39.5721 45.8278 39.5756 45.8328 39.5799 45.837L41.5401 47.7662C41.5488 47.7747 41.5606 47.7795 41.5728 47.7794C41.5851 47.7794 41.5968 47.7745 41.6054 47.7658L43.6511 45.71ZM51.4603 43.796C51.4518 43.7874 51.4416 43.7806 51.4304 43.776C51.4192 43.7714 51.4072 43.769 51.3951 43.7689C51.3829 43.7689 51.3709 43.7713 51.3597 43.7759C51.3485 43.7805 51.3383 43.7872 51.3297 43.7957L49.3181 45.7893C49.3095 45.7978 49.3027 45.8079 49.298 45.8191C49.2934 45.8302 49.291 45.8421 49.2909 45.8542C49.2909 45.8663 49.2933 45.8782 49.2979 45.8894C49.3025 45.9005 49.3093 45.9107 49.3179 45.9192L51.1292 47.7269C51.1378 47.7355 51.148 47.7423 51.1592 47.7469C51.1704 47.7515 51.1824 47.7539 51.1945 47.7539C51.2067 47.754 51.2187 47.7516 51.2299 47.747C51.2411 47.7424 51.2513 47.7357 51.2599 47.7271L53.2715 45.7336C53.2801 45.7251 53.2869 45.715 53.2916 45.7038C53.2962 45.6927 53.2986 45.6807 53.2987 45.6687C53.2987 45.6566 53.2963 45.6447 53.2917 45.6335C53.2871 45.6223 53.2803 45.6122 53.2717 45.6037L51.4603 43.796ZM62.8903 45.6484C62.9085 45.6302 62.9188 45.6055 62.9188 45.5798C62.9188 45.5541 62.9085 45.5294 62.8903 45.5112L61.2088 43.839C61.1905 43.8208 61.1657 43.8106 61.1398 43.8106C61.114 43.8106 61.0892 43.8208 61.0709 43.839L59.0652 45.8337C59.0469 45.8518 59.0366 45.8765 59.0366 45.9022C59.0366 45.928 59.0469 45.9526 59.0652 45.9708L60.7467 47.643C60.765 47.6612 60.7898 47.6714 60.8156 47.6714C60.8415 47.6714 60.8663 47.6612 60.8846 47.643L62.8903 45.6484ZM27.1747 52.589L29.113 50.6613C29.1279 50.6466 29.1398 50.6291 29.1478 50.6099C29.1559 50.5906 29.16 50.5699 29.16 50.549C29.16 50.5282 29.1559 50.5075 29.1478 50.4882C29.1398 50.469 29.1279 50.4515 29.113 50.4368L23.1664 44.5229C23.0067 44.3641 22.8206 44.2347 22.6187 44.1421C22.4167 44.0495 22.203 43.9955 21.9896 43.9831C21.7763 43.9708 21.5675 44.0004 21.3752 44.0703C21.1829 44.1401 21.0108 44.2488 20.8689 44.3902C20.7267 44.5313 20.6174 44.7024 20.5472 44.8937C20.477 45.0849 20.4472 45.2926 20.4596 45.5048C20.472 45.7169 20.5263 45.9295 20.6194 46.1303C20.7125 46.3311 20.8426 46.5162 21.0023 46.6751L26.9489 52.589C26.9637 52.6038 26.9813 52.6155 27.0007 52.6236C27.0201 52.6316 27.0408 52.6357 27.0618 52.6357C27.0828 52.6357 27.1036 52.6316 27.123 52.6236C27.1424 52.6155 27.16 52.6038 27.1747 52.589ZM31.9888 47.7912L33.9938 45.7819C34.0042 45.7716 34.0124 45.7594 34.018 45.746C34.0236 45.7325 34.0265 45.7181 34.0265 45.7036C34.0265 45.6891 34.0236 45.6747 34.018 45.6612C34.0124 45.6478 34.0042 45.6356 33.9938 45.6253L32.8374 44.4837C32.5287 44.1788 32.1193 43.9998 31.6993 43.986C31.2794 43.9723 30.8832 44.125 30.598 44.4106L30.586 44.4225C30.4447 44.5639 30.3349 44.7337 30.263 44.9222C30.191 45.1107 30.1582 45.3141 30.1664 45.5209C30.1747 45.7278 30.2238 45.9339 30.3111 46.1275C30.3984 46.3212 30.522 46.4986 30.675 46.6495L31.8314 47.7912C31.8418 47.8014 31.854 47.8096 31.8675 47.8152C31.881 47.8207 31.8955 47.8236 31.9101 47.8236C31.9248 47.8236 31.9392 47.8207 31.9527 47.8152C31.9662 47.8096 31.9785 47.8014 31.9888 47.7912ZM36.7311 48.4121C36.7352 48.408 36.7384 48.4031 36.7407 48.3977C36.7429 48.3924 36.744 48.3866 36.744 48.3808C36.744 48.375 36.7428 48.3692 36.7405 48.3639C36.7383 48.3585 36.735 48.3537 36.7308 48.3496L34.1841 45.8344C34.1799 45.8303 34.175 45.8271 34.1696 45.8249C34.1642 45.8227 34.1584 45.8216 34.1526 45.8216C34.1467 45.8216 34.1409 45.8228 34.1356 45.825C34.1302 45.8273 34.1253 45.8305 34.1212 45.8346L32.0333 47.9256C32.0292 47.9297 32.0259 47.9346 32.0237 47.94C32.0215 47.9453 32.0204 47.9511 32.0204 47.9569C32.0204 47.9627 32.0216 47.9685 32.0238 47.9738C32.0261 47.9792 32.0294 47.984 32.0335 47.9881L34.5803 50.5033C34.5845 50.5074 34.5894 50.5106 34.5948 50.5128C34.6002 50.515 34.606 50.5161 34.6118 50.5161C34.6177 50.5161 34.6234 50.5149 34.6288 50.5127C34.6342 50.5105 34.6391 50.5072 34.6432 50.5031L36.7311 48.4121ZM46.3352 48.4099C46.348 48.3971 46.3552 48.3798 46.3552 48.3618C46.3552 48.3437 46.348 48.3264 46.3352 48.3136L43.911 45.9027C43.8981 45.89 43.8807 45.8828 43.8626 45.8828C43.8444 45.8828 43.827 45.89 43.8142 45.9027L41.7916 47.9142C41.7788 47.927 41.7716 47.9443 41.7716 47.9623C41.7716 47.9804 41.7788 47.9977 41.7916 48.0105L44.2158 50.4214C44.2287 50.4341 44.2461 50.4413 44.2642 50.4413C44.2824 50.4413 44.2998 50.4341 44.3126 50.4214L46.3352 48.4099ZM55.9918 48.3504C55.9959 48.3463 55.9992 48.3414 56.0014 48.336C56.0037 48.3306 56.0048 48.3249 56.0048 48.3191C56.0048 48.3133 56.0036 48.3075 56.0014 48.3022C55.9991 48.2968 55.9958 48.2919 55.9917 48.2878L53.6359 45.9532C53.6318 45.9491 53.6269 45.9459 53.6215 45.9437C53.6161 45.9414 53.6103 45.9403 53.6045 45.9403C53.5986 45.9403 53.5928 45.9415 53.5875 45.9437C53.5821 45.9459 53.5772 45.9492 53.573 45.9533L51.5008 48.0213C51.4967 48.0255 51.4935 48.0303 51.4912 48.0357C51.489 48.0411 51.4879 48.0468 51.4879 48.0526C51.4879 48.0585 51.489 48.0642 51.4913 48.0696C51.4935 48.0749 51.4968 48.0798 51.5009 48.0839L53.8567 50.4185C53.8608 50.4226 53.8657 50.4259 53.8712 50.4281C53.8765 50.4303 53.8823 50.4314 53.8882 50.4314C53.894 50.4314 53.8998 50.4303 53.9052 50.428C53.9106 50.4258 53.9155 50.4225 53.9196 50.4184L55.9918 48.3504ZM65.596 48.3036C65.606 48.2936 65.6139 48.2818 65.6193 48.2687C65.6247 48.2557 65.6274 48.2418 65.6274 48.2277C65.6273 48.2136 65.6245 48.1997 65.619 48.1867C65.6135 48.1737 65.6056 48.1619 65.5955 48.152L63.4105 45.9941C63.3902 45.9741 63.3627 45.9629 63.3342 45.963C63.3056 45.9631 63.2782 45.9745 63.2581 45.9946L61.2522 48.0035C61.2422 48.0135 61.2343 48.0253 61.2289 48.0383C61.2236 48.0514 61.2208 48.0653 61.2209 48.0794C61.2209 48.0935 61.2238 48.1074 61.2292 48.1204C61.2347 48.1334 61.2427 48.1452 61.2527 48.1551L63.4377 50.313C63.458 50.333 63.4855 50.3442 63.5141 50.3441C63.5426 50.344 63.57 50.3326 63.5902 50.3124L65.596 48.3036ZM38.8226 50.5229C38.8296 50.5159 38.8352 50.5077 38.839 50.4986C38.8428 50.4895 38.8447 50.4798 38.8447 50.4699C38.8447 50.4601 38.8428 50.4504 38.839 50.4413C38.8352 50.4322 38.8296 50.4239 38.8226 50.417L36.9186 48.5234C36.9116 48.5165 36.9033 48.5109 36.8942 48.5072C36.885 48.5034 36.8752 48.5015 36.8654 48.5015C36.8555 48.5015 36.8457 48.5034 36.8365 48.5072C36.8274 48.5109 36.8191 48.5165 36.8121 48.5234L34.7387 50.5854C34.7317 50.5924 34.7262 50.6006 34.7224 50.6097C34.7186 50.6188 34.7167 50.6285 34.7167 50.6384C34.7167 50.6482 34.7186 50.6579 34.7224 50.667C34.7262 50.6761 34.7317 50.6843 34.7387 50.6913L36.6428 52.5849C36.6498 52.5918 36.6581 52.5973 36.6672 52.6011C36.6763 52.6049 36.6861 52.6068 36.696 52.6068C36.7059 52.6068 36.7157 52.6049 36.7248 52.6011C36.7339 52.5973 36.7422 52.5918 36.7492 52.5849L38.8226 50.5229ZM46.6067 48.5737C46.5936 48.5605 46.5758 48.5531 46.5572 48.553C46.5386 48.5528 46.5207 48.5601 46.5075 48.573L44.4659 50.5752C44.4527 50.5882 44.4452 50.6059 44.445 50.6244C44.4449 50.6429 44.4522 50.6607 44.4652 50.6739L46.3103 52.5346C46.3233 52.5477 46.3411 52.5552 46.3597 52.5553C46.3783 52.5555 46.3962 52.5482 46.4095 52.5352L48.451 50.5331C48.4643 50.5201 48.4718 50.5024 48.4719 50.4839C48.472 50.4654 48.4648 50.4476 48.4517 50.4344L46.6067 48.5737ZM58.0571 50.455C58.0664 50.4456 58.0737 50.4345 58.0787 50.4223C58.0837 50.4101 58.0862 50.397 58.0861 50.3838C58.086 50.3706 58.0833 50.3576 58.0782 50.3454C58.073 50.3333 58.0655 50.3223 58.0561 50.313L56.3605 48.6501C56.351 48.6409 56.3398 48.6336 56.3276 48.6286C56.3153 48.6237 56.3021 48.6211 56.2889 48.6212C56.2756 48.6213 56.2625 48.624 56.2503 48.6291C56.2381 48.6343 56.227 48.6417 56.2177 48.6511L54.2189 50.6669C54.2096 50.6763 54.2022 50.6874 54.1972 50.6996C54.1922 50.7118 54.1897 50.7249 54.1898 50.7381C54.1899 50.7513 54.1926 50.7643 54.1978 50.7765C54.2029 50.7886 54.2104 50.7996 54.2199 50.8089L55.9155 52.4718C55.9249 52.481 55.9361 52.4883 55.9484 52.4933C55.9607 52.4982 55.9738 52.5008 55.9871 52.5007C56.0003 52.5006 56.0134 52.4979 56.0256 52.4928C56.0378 52.4876 56.0489 52.4802 56.0582 52.4708L58.0571 50.455ZM67.2015 54.0521C68.6248 55.4438 69.5486 54.1304 70.5118 53.2185C70.523 53.2077 70.5319 53.1948 70.5381 53.1805C70.5442 53.1663 70.5474 53.1509 70.5476 53.1354C70.5478 53.1199 70.5448 53.1046 70.539 53.0902C70.5331 53.0758 70.5245 53.0628 70.5135 53.0517L66.0912 48.6537C66.0819 48.6442 66.0708 48.6365 66.0585 48.6312C66.0463 48.626 66.0331 48.6232 66.0197 48.623C66.0063 48.6228 65.9931 48.6253 65.9807 48.6303C65.9683 48.6353 65.957 48.6427 65.9475 48.652L63.9322 50.6426C63.913 50.6617 63.902 50.6874 63.9017 50.7142C63.9013 50.741 63.9117 50.7666 63.9305 50.7855C65.014 51.8914 66.1043 52.9803 67.2015 54.0521ZM29.4073 50.7294C29.34 50.6625 29.2727 50.6625 29.2054 50.7294L27.2329 52.691C27.1896 52.7341 27.189 52.7784 27.2312 52.8237C28.0797 53.7391 29.2978 55.2584 30.4748 54.4315C30.8398 54.1752 31.2783 53.7612 31.7904 53.1895C31.8059 53.1716 31.8141 53.1484 31.8131 53.1247C31.8122 53.101 31.8022 53.0786 31.7852 53.0619L29.4073 50.7294ZM36.9466 52.8714C37.619 53.6217 39.1039 55.3639 40.1834 54.3856C40.5426 54.0601 40.9515 53.6551 41.41 53.1708C41.4556 53.1221 41.4551 53.0733 41.4083 53.0245L39.133 50.709C39.1225 50.6984 39.11 50.69 39.0962 50.6842C39.0823 50.6785 39.0675 50.6755 39.0526 50.6755C39.0376 50.6755 39.0228 50.6785 39.009 50.6842C38.9952 50.69 38.9827 50.6984 38.9722 50.709L36.95 52.7404C36.9078 52.7835 36.9067 52.8271 36.9466 52.8714ZM48.8398 50.7668C48.8231 50.7504 48.8004 50.7414 48.7767 50.7417C48.753 50.742 48.7302 50.7517 48.7133 50.7685L46.6946 52.7744C46.6558 52.8141 46.6546 52.8544 46.6911 52.8952C47.1257 53.3954 47.6013 53.8565 48.1179 54.2784C49.3377 55.2788 50.2803 53.8633 51.0707 53.1538C51.0826 53.1433 51.0922 53.1306 51.0989 53.1163C51.1056 53.102 51.1094 53.0865 51.1098 53.0707C51.1103 53.0549 51.1076 53.0392 51.1017 53.0245C51.0959 53.0099 51.087 52.9965 51.0758 52.9854L48.8398 50.7668ZM57.5784 54.0947C58.9111 55.3366 59.8726 53.933 60.6989 53.1521C60.7547 53.0999 60.7553 53.0461 60.7006 52.9905L58.5724 50.8162C58.5211 50.764 58.4692 50.764 58.4167 50.8162L56.3997 52.822C56.3507 52.8708 56.3501 52.9196 56.398 52.9684C56.6284 53.202 57.0219 53.5774 57.5784 54.0947Z" fill="#0E0E0E"/>
</svg>
