<svg width="90" height="90" viewBox="0 0 90 90" fill="none" xmlns="http://www.w3.org/2000/svg">
<rect width="90" height="90" rx="20" fill="#00FFA9"/>
<path fill-rule="evenodd" clip-rule="evenodd" d="M38.8119 18.5153C39.2333 18.2505 39.5134 17.7814 39.5134 17.2469C39.5134 16.4202 38.8432 15.75 38.0165 15.75C37.1897 15.75 36.5195 16.4202 36.5195 17.2469C36.5195 18.0686 37.1815 18.7356 38.0012 18.7438C37.6159 18.9136 37.2877 19.1643 37.0166 19.4958C36.2296 21.1266 36.635 22.3428 38.2328 23.1446C37.614 23.6644 37.2085 24.3193 37.0166 25.1093C36.61 26.7747 36.9842 28.2092 38.1393 29.413L38.3264 33.3424C38.5586 36.1611 39.5254 38.6872 41.2267 40.9206C40.1343 41.2092 39.0739 41.5834 38.0457 42.0433C33.834 44.602 30.7154 48.1261 28.6899 52.6154C26.4331 53.2612 25.248 54.7581 25.1347 57.1062C22.7429 56.4382 21.6202 57.3738 21.7666 59.913C22.1945 60.9298 22.9742 61.4911 24.1055 61.597C25.2041 61.4114 25.859 60.7877 26.0703 59.7258C26.6469 59.9554 27.2083 60.2361 27.7543 60.5679L29.1577 60.8485C32.2806 60.404 33.6528 58.5951 33.2742 55.4222C33.871 54.4415 34.4323 53.4434 34.9583 52.4283C36.555 50.2082 38.5197 48.3683 40.8525 46.9084C42.7944 46.0852 44.1352 46.6778 44.8755 48.686C45.637 52.7406 45.2317 56.6701 43.6592 60.4743C43.0316 60.946 42.5013 61.5074 42.0687 62.1584C41.1509 65.3584 42.3047 67.3855 45.5304 68.2397C44.7832 70.4862 45.5942 71.7337 47.9629 71.982L47.9258 72.0249L47.9085 72.0452C47.58 72.3198 47.3711 72.7326 47.3711 73.1942C47.3711 74.0209 48.0413 74.6911 48.868 74.6911C49.6948 74.6911 50.365 74.0209 50.365 73.1942C50.365 72.5641 49.9756 72.0249 49.4244 71.8041C49.4344 71.7959 49.4395 71.7906 49.4386 71.7867C49.437 71.7801 49.4183 71.7776 49.3777 71.7721C49.3576 71.7693 49.3322 71.7658 49.3008 71.7608C49.2201 71.7364 49.1365 71.7188 49.0507 71.7083C48.9577 71.6848 48.8455 71.6526 48.7114 71.6078C49.0936 71.2689 49.3743 70.8634 49.5534 70.3915C49.8659 69.0255 49.4604 67.9652 48.3371 67.2105C48.6537 66.8627 48.9344 66.4884 49.1791 66.0878C49.565 64.6131 49.5337 63.1473 49.0856 61.6906C49.7061 59.5778 50.1739 57.426 50.489 55.2351C51.0271 51.5107 50.4968 47.9555 48.8985 44.5694C52.8451 43.8129 56.1509 41.9417 58.8156 38.9559C61.7133 38.8201 63.3351 37.3231 63.6807 34.4651C64.0166 34.6083 64.3595 34.733 64.7098 34.8393C66.5878 34.3901 67.3349 33.2629 66.9509 31.4577C67.2164 31.6975 67.5681 31.8435 67.954 31.8435C68.7807 31.8435 69.4509 31.1733 69.4509 30.3465C69.4509 29.5198 68.7807 28.8496 67.954 28.8496C67.1272 28.8496 66.457 29.5198 66.457 30.3465C66.457 30.5101 66.4833 30.6676 66.5318 30.815C66.2817 30.6134 66.0175 30.4267 65.739 30.255C64.1002 29.7188 63.0087 30.249 62.4644 31.8455C62.1018 31.3579 61.634 31.0148 61.061 30.8163C57.4708 30.2271 55.6309 31.7552 55.5411 35.4007C54.0724 36.9618 52.3571 38.1781 50.3954 39.0495C48.8369 39.7208 47.34 39.5962 45.9046 38.6752C44.1541 37.0509 43.1873 35.0238 43.0043 32.594C42.6338 31.0314 43.008 29.7215 44.127 28.6645C45.4941 25.2061 44.4026 23.0231 40.8525 22.1154C41.5282 20.0328 40.8479 18.8328 38.8119 18.5153ZM50.1628 29.0853C49.0385 28.7373 47.7823 28.7888 46.7684 29.3865C45.7651 29.9781 45.037 30.8892 44.584 32.1201C44.179 33.7132 44.3737 35.1094 45.1682 36.3086C45.7282 37.1539 46.6206 37.7318 47.5949 38.0126C49.6045 38.5919 51.2272 38.0768 52.4631 36.4674C53.1873 35.5244 53.527 34.3192 53.4248 33.1347C53.2452 31.0526 52.1578 29.7028 50.1628 29.0853ZM20.4266 62.1579C21.2534 62.1579 21.9236 61.4877 21.9236 60.661C21.9236 59.8343 21.2534 59.1641 20.4266 59.1641C19.5999 59.1641 18.9297 59.8343 18.9297 60.661C18.9297 61.4877 19.5999 62.1579 20.4266 62.1579Z" fill="#191919"/>
</svg>
