<svg width="90" height="90" viewBox="0 0 90 90" fill="none" xmlns="http://www.w3.org/2000/svg">
<rect width="90" height="90" rx="20" fill="#00FFA9"/>
<g clip-path="url(#clip0_3695_22912)">
<path d="M53.5625 60.0781H48.1318L43.0811 41.1895L42.3613 38.498L41.6455 41.1904L36.5967 60.1797H31.167L22.0176 31.6328H27.9346L33.1777 51.6729L34.6172 51.6631L39.5781 31.6328H45.251L50.209 51.6631L51.6494 51.6729L56.8965 31.625L62.7061 31.5508L53.5625 60.0781Z" fill="#0E0E0E" stroke="#0E0E0E" stroke-width="1.48571"/>
<path d="M67.9933 51.1934C70.8836 51.1934 73.0004 53.3145 73.0004 56.2027C73.0004 59.0844 70.8836 61.2034 67.9933 61.2034C65.1051 61.2034 62.9883 59.0844 62.9883 56.2027C62.9904 53.3145 65.2026 51.1934 67.9933 51.1934Z" fill="#0E0E0E"/>
<path d="M67.9932 51.9365C70.4726 51.9365 72.2578 53.7246 72.2578 56.2031C72.2576 58.6739 70.4735 60.4609 67.9932 60.4609C65.5153 60.4609 63.7317 58.674 63.7314 56.2031L63.7363 55.9736C63.8501 53.6225 65.6793 51.9366 67.9932 51.9365Z" stroke="#0E0E0E" stroke-opacity="0.8" stroke-width="1.48571"/>
</g>
<defs>
<clipPath id="clip0_3695_22912">
<rect width="52" height="52" fill="white" transform="translate(21 20)"/>
</clipPath>
</defs>
</svg>
