<svg width="90" height="90" viewBox="0 0 90 90" fill="none" xmlns="http://www.w3.org/2000/svg">
<rect width="90" height="90" rx="20" fill="#00FFA9"/>
<path fill-rule="evenodd" clip-rule="evenodd" d="M39.7397 22L40.1675 22.0517C40.4081 22.0775 41.3572 22.1422 42.2796 22.168C43.8036 22.2326 44.0442 22.2843 45.889 23.0857L45.7286 24.1197L46.6108 24.5462C47.4798 24.9469 47.4931 24.9727 47.4931 25.4768C47.4931 25.7612 47.4129 26.6788 47.306 27.519C47.199 28.3462 47.0119 29.8713 46.8916 30.9053C46.7713 31.9393 46.6643 32.8958 46.6509 33.0509C46.6242 33.2964 46.7044 33.3352 47.6535 33.4128C48.4556 33.4774 48.8834 33.5808 49.5251 33.9039C50.3539 34.3304 50.3672 34.3304 50.287 35.3644L52.2254 35.4549C54.0568 35.5583 54.2306 35.5842 55.9417 36.3984L55.8481 37.4712L56.8507 37.5229C57.6528 37.5746 58.0271 37.678 59.6313 38.4664L59.4976 39.5004L60.3799 39.914C61.2622 40.3405 61.2622 40.3405 61.2622 40.8834C61.2622 41.4392 61.2622 41.4392 63 42.2793L62.9198 43.1453C62.8797 43.6364 62.7727 44.7221 62.6658 45.5752C62.5589 46.4282 62.3851 47.8758 62.2781 48.8064C62.1712 49.737 61.9439 51.6111 61.4627 55.4628H60.4868C59.805 55.4628 59.5243 55.5145 59.5243 55.6179C59.5243 55.7083 59.404 56.7423 59.257 57.9185C59.1099 59.0947 58.9762 60.2321 58.9228 60.8266L57.0512 60.7362L56.8775 61.8219C56.7973 62.4035 56.6235 63.6831 56.5165 64.6395C56.3962 65.596 56.2625 66.7463 56.1155 68H55.5407C55.2332 68 53.9766 67.9483 52.7334 67.8708C51.5035 67.8061 48.7497 67.651 46.6242 67.5476C44.4987 67.4442 41.6647 67.2891 40.3413 67.2245C39.0178 67.147 37.5607 67.0694 37.0928 67.0306C36.5314 66.9919 35.9967 66.8368 35.4352 66.5653C34.9673 66.3456 34.5797 66.1517 34.5529 66.1388C34.5395 66.1388 34.6331 65.079 34.7802 63.7994C34.9272 62.5198 35.0342 61.46 35.0208 61.46C35.0074 61.447 34.6198 61.2532 34.1652 61.0334C33.6974 60.8137 33.2963 60.594 33.283 60.5294C33.2562 60.4777 33.2963 59.8573 33.3899 59.1464C33.4701 58.4355 33.5236 57.8151 33.4968 57.7505C33.4701 57.6988 33.0824 57.4791 32.6279 57.2593C32.16 57.0396 31.7724 56.8457 31.759 56.8328C31.7456 56.8328 31.7991 56.1866 31.8927 55.4111C32.0531 54.054 32.0397 54.0023 31.7857 53.8471C31.6387 53.7437 31.2243 53.5369 30.8767 53.3689C30.2351 53.0717 30.2217 53.0716 30.3019 52.5547C30.342 52.2703 30.4088 51.6241 30.5425 50.2282L29.6602 49.8016C28.7913 49.401 28.7779 49.3751 28.7512 48.8323C28.7111 48.3023 28.6844 48.2765 27 47.3847L27.0802 46.6738C27.1337 46.286 27.254 45.1486 27.3743 44.1534C27.4812 43.1582 27.6149 42.1371 27.7352 41.4392L29.0854 41.5426C29.834 41.5943 30.9302 41.6718 31.5184 41.7106C32.1066 41.7364 32.9488 41.8011 33.3899 41.8398C33.831 41.8786 34.4192 42.0208 34.7 42.163C34.9673 42.2922 35.2213 42.3956 35.2614 42.3698C35.3015 42.3568 35.4619 41.3875 35.5956 40.2113C35.7427 39.0351 35.9566 37.3161 36.0635 36.3984C36.1704 35.4678 36.4779 32.9216 36.7319 30.7114C36.9859 28.5013 37.2666 26.1489 37.3335 25.4768C37.4137 24.8047 37.4939 24.1326 37.534 23.9904C37.5874 23.7578 37.681 23.7319 39.5392 23.8224L39.7397 22ZM41.5577 26.5625C41.5043 26.989 41.3572 28.3332 41.2102 29.5353C41.0631 30.7502 40.7958 33.0121 40.622 34.576C40.4348 36.1399 40.1675 38.4406 40.0071 39.6814C39.86 40.9222 39.6862 42.4732 39.606 43.1065C39.5392 43.7527 39.3921 45.0582 39.2718 46.0146C39.1649 46.9711 38.951 48.7418 38.8039 49.9309C38.6569 51.12 38.5366 52.1928 38.5366 52.322C38.5499 52.5288 38.443 52.5288 37.3067 52.4383C36.4244 52.3608 35.8897 52.2445 35.4352 52.0118C35.0876 51.8438 34.7668 51.7016 34.7267 51.7016C34.7 51.7016 34.6465 51.9601 34.6331 52.2703L34.593 52.8519L36.4244 53.705C36.3041 54.5063 36.2373 55.1526 36.1838 55.6437L36.0902 56.5485L37.935 57.4015C37.788 58.7457 37.7078 59.392 37.6543 59.7151L37.5741 60.2967C39.4189 61.111 39.4723 61.1627 39.4055 61.4987C39.3654 61.6926 39.2852 62.3259 39.2317 62.9076L39.1381 63.9803C39.967 64.0708 41.5043 64.1613 43.0817 64.2388C44.6725 64.3164 46.5975 64.4069 47.3595 64.4456C48.1348 64.4844 49.5251 64.562 50.4341 64.6137C51.3565 64.6783 52.1185 64.7171 52.1452 64.7041C52.1586 64.7041 52.2655 63.9674 52.3724 63.0756C52.4794 62.1838 52.6131 61.0593 52.6532 60.5552C52.6933 60.0641 52.7869 59.56 52.8537 59.4566C52.9339 59.3144 53.1745 59.2756 53.8429 59.3015C54.5782 59.3273 54.7252 59.2886 54.7787 59.1076C54.8054 58.9784 54.899 58.2416 54.9792 57.4532C55.0728 56.6777 55.1931 55.6179 55.2599 55.1009C55.3268 54.5839 55.3802 54.1056 55.3802 54.0281C55.3802 53.9506 55.7813 53.9118 56.3695 53.9376L57.3587 53.9635C57.5993 51.6628 57.8934 49.0908 58.1742 46.7772L58.6554 42.5507L56.8507 41.6847L56.9844 40.5861C55.2332 40.5861 55.0059 40.5344 54.1771 40.1079C53.2681 39.6297 53.2414 39.6038 53.2414 39.1385C53.2414 38.7379 53.1879 38.6344 52.9473 38.5827C52.7869 38.5569 52.466 38.5181 52.2388 38.5181H51.8377C51.4634 41.8786 51.3164 43.1065 51.2629 43.4167L51.1693 43.9854C48.8968 43.8691 48.6695 43.8044 47.8674 43.3908C47.1857 43.0289 46.9718 42.8609 47.0253 42.6929C47.052 42.5636 47.1188 42.0854 47.1589 41.6201C47.2124 41.1548 47.3728 39.8494 47.5065 38.712C47.6535 37.5746 47.7605 36.6052 47.7605 36.5535C47.7605 36.5018 47.4263 36.4631 46.9985 36.4889L46.2232 36.5148C45.5681 42.0208 45.381 43.6364 45.3676 43.6623C45.3676 43.6752 44.8329 43.6493 44.1912 43.6106C43.2287 43.5459 42.8544 43.4555 42.1192 43.0936C41.6246 42.848 41.2102 42.6283 41.2102 42.5895C41.2102 42.5507 41.5444 39.6297 41.9588 36.1012C42.3732 32.5597 42.8143 28.7081 42.948 27.5319C43.1485 25.9163 43.1619 25.3734 43.0416 25.3088C42.9614 25.2571 42.6272 25.2054 42.3197 25.2054C41.8385 25.2054 41.7449 25.2571 41.6914 25.5027C41.6647 25.6578 41.5978 26.136 41.5577 26.5625ZM31.4916 45.9888C31.4114 46.6092 31.3847 47.1262 31.4382 47.152C31.4783 47.1779 31.8793 47.3717 32.3205 47.6044C33.1092 48.018 33.1225 48.0309 33.0958 48.535C33.0824 49.0391 33.0958 49.0649 33.8043 49.4139L34.5262 49.7629C34.6331 48.9098 34.7 48.2248 34.7668 47.6819L34.8604 46.6867C33.0824 45.8337 33.0557 45.8078 33.0557 45.3425V44.8514H31.6253L31.4916 45.9888Z" fill="#141414"/>
</svg>
