<svg width="90" height="90" viewBox="0 0 90 90" fill="none" xmlns="http://www.w3.org/2000/svg">
<rect width="90" height="90" rx="20" fill="#00FFA9"/>
<path fill-rule="evenodd" clip-rule="evenodd" d="M59.9357 65.303H59.8959C53.9535 65.2951 48.8781 63.3063 45.2187 59.5593C41.7026 55.9517 39.7695 50.8645 39.7774 45.2282C39.7853 38.896 42.1003 33.6496 46.4717 30.0617C50.2066 26.9951 55.2064 25.3086 60.5563 25.3086H60.5921C71.5423 25.3245 76.1245 32.3608 77.8826 36.5531L78.0536 36.9628L75.6432 38.4386C73.4436 39.7869 71.6616 40.8807 69.3507 42.261L80.0702 42.2768V43.1718C80.3049 50.1484 78.3797 55.9159 74.5057 59.8577C71.0014 63.4216 65.9618 65.307 59.9318 65.307L59.9357 65.303ZM60.5563 26.3467C55.4531 26.3467 50.6919 27.9497 47.1479 30.8573C43.0271 34.2422 40.8435 39.2102 40.8314 45.2282C40.8235 50.5939 42.6493 55.4227 45.9785 58.8354C49.431 62.3755 54.2439 64.2529 59.8959 64.2609H59.9397C65.7589 64.2609 70.4047 62.5346 73.7538 59.1298C77.4053 55.4147 79.2269 49.9495 79.0241 43.311L58.822 43.2792L58.8101 50.24L68.2091 50.2519L68.1375 50.8326C67.7079 54.3567 64.856 56.3774 60.3176 56.3774H60.2937C54.1722 56.3694 50.5209 52.3123 50.5288 45.5265C50.5367 40.8052 52.3306 38.1244 53.8341 36.7083C55.4848 35.1531 57.756 34.2262 59.9119 34.2262H59.9238C64.4344 34.2342 67.9705 37.8777 68.6984 41.4296C71.0571 40.0255 72.8549 38.9198 75.0823 37.5555L76.729 36.5452C74.951 32.5597 70.5797 26.3666 60.5881 26.3507H60.5522L60.5563 26.3467ZM59.9158 35.2684C58.0266 35.2684 56.0297 36.0878 54.57 37.464C52.6249 39.2938 51.5948 42.0859 51.5908 45.5345C51.5829 51.6679 54.8365 55.3352 60.2978 55.3432H60.3176C64.0526 55.3432 66.3953 53.9112 66.988 51.294L57.7521 51.2781L57.764 42.2371L67.7597 42.253C67.4494 38.9397 64.1798 35.2723 59.9278 35.2684H59.9158Z" fill="#0E0E0E"/>
<path fill-rule="evenodd" clip-rule="evenodd" d="M60.5607 26.3457C55.4575 26.3457 50.6963 27.9487 47.1523 30.8562C43.0316 34.2411 40.8479 39.2092 40.836 45.2272C40.828 50.5929 42.6537 55.4216 45.9829 58.8344C49.4354 62.3745 54.2483 64.2518 59.9004 64.2598H59.9442C65.7633 64.2598 70.4091 62.5336 73.7583 59.1287C77.4097 55.4138 79.2314 49.9486 79.0285 43.31L58.8265 43.2782L58.8145 50.2389L68.2135 50.2508L68.142 50.8316C67.7123 54.3557 64.8604 56.3763 60.3221 56.3763H60.2981C54.1767 56.3683 50.5253 52.3112 50.5332 45.5255C50.5412 40.8042 52.3351 38.1233 53.8386 36.7073C55.4892 35.152 57.7604 34.2253 59.9163 34.2253H59.9282C64.4388 34.2332 67.9749 37.8767 68.7028 41.4286C71.0615 40.0246 72.8593 38.9187 75.0867 37.5545L76.7335 36.5442C74.9556 32.5586 70.5842 26.3656 60.5925 26.3497H60.5568L60.5607 26.3457Z" fill="#00FFA9"/>
<path fill-rule="evenodd" clip-rule="evenodd" d="M55.6819 65.303H55.642C49.6996 65.2951 44.6242 63.3063 40.9648 59.5593C37.4487 55.9517 35.5156 50.8645 35.5235 45.2282C35.5314 38.896 37.8464 33.6496 42.2178 30.0617C45.9527 26.9951 50.9525 25.3086 56.3024 25.3086H56.3382C67.2884 25.3245 71.8706 32.3608 73.6287 36.5531L73.7997 36.9628L71.3893 38.4386C69.1897 39.7869 67.4077 40.8807 65.0967 42.261L75.8163 42.2768V43.1718C76.051 50.1484 74.1258 55.9159 70.2518 59.8577C66.7475 63.4216 61.7079 65.307 55.6779 65.307L55.6819 65.303ZM56.3024 26.3467C51.1991 26.3467 46.438 27.9497 42.894 30.8573C38.7731 34.2422 36.5895 39.2102 36.5775 45.2282C36.5696 50.5939 38.3954 55.4227 41.7246 58.8354C45.1771 62.3755 49.99 64.2529 55.642 64.2609H55.6858C61.505 64.2609 66.1508 62.5346 69.4999 59.1298C73.1514 55.4147 74.973 49.9495 74.7702 43.311L54.5681 43.2792L54.5562 50.24L63.9552 50.2519L63.8835 50.8326C63.454 54.3567 60.6021 56.3774 56.0637 56.3774H56.0398C49.9183 56.3694 46.2669 52.3123 46.2749 45.5265C46.2829 40.8052 48.0767 38.1244 49.5802 36.7083C51.2309 35.1531 53.5021 34.2262 55.658 34.2262H55.6699C60.1805 34.2342 63.7166 37.8777 64.4445 41.4296C66.8032 40.0255 68.601 38.9198 70.8284 37.5555L72.4752 36.5452C70.6971 32.5597 66.3258 26.3666 56.3342 26.3507H56.2983L56.3024 26.3467ZM55.6619 35.2684C53.7727 35.2684 51.7759 36.0878 50.3161 37.464C48.371 39.2938 47.3409 42.0859 47.3368 45.5345C47.329 51.6679 50.5826 55.3352 56.0439 55.3432H56.0637C59.7987 55.3432 62.1414 53.9112 62.7341 51.294L53.4982 51.2781L53.5101 42.2371L63.5058 42.253C63.1955 38.9397 59.9259 35.2723 55.6739 35.2684H55.6619Z" fill="#0E0E0E"/>
<path fill-rule="evenodd" clip-rule="evenodd" d="M56.3029 26.3457C51.1997 26.3457 46.4385 27.9487 42.8945 30.8562C38.7738 34.2411 36.5901 39.2092 36.5782 45.2272C36.5702 50.5929 38.3959 55.4216 41.7251 58.8344C45.1776 62.3745 49.9905 64.2518 55.6425 64.2598H55.6863C61.5055 64.2598 66.1513 62.5336 69.5004 59.1287C73.1519 55.4138 74.9735 49.9486 74.7707 43.31L54.5686 43.2782L54.5567 50.2389L63.9557 50.2508L63.8841 50.8316C63.4545 54.3557 60.6026 56.3763 56.0642 56.3763H56.0403C49.9189 56.3683 46.2675 52.3112 46.2754 45.5255C46.2834 40.8042 48.0772 38.1233 49.5808 36.7073C51.2314 35.152 53.5026 34.2253 55.6585 34.2253H55.6704C60.181 34.2332 63.7171 37.8767 64.445 41.4286C66.8037 40.0246 68.6015 38.9187 70.8289 37.5545L72.4756 36.5442C70.6977 32.5586 66.3263 26.3656 56.3347 26.3497H56.2988L56.3029 26.3457Z" fill="#00FFA9"/>
<path fill-rule="evenodd" clip-rule="evenodd" d="M51.4279 65.303H51.3881C45.4456 65.2951 40.3702 63.3063 36.7108 59.5593C33.1946 55.9517 31.2616 50.8645 31.2696 45.2282C31.2775 38.896 33.5924 33.6496 37.9638 30.0617C41.6987 26.9951 46.6985 25.3086 52.0484 25.3086H52.0842C63.0344 25.3245 67.6166 32.3608 69.3747 36.5531L69.5457 36.9628L67.1354 38.4386C64.9357 39.7869 63.1538 40.8807 60.8428 42.261L71.5623 42.2768V43.1718C71.797 50.1484 69.8719 55.9159 65.9977 59.8577C62.4935 63.4216 57.4539 65.307 51.4238 65.307L51.4279 65.303ZM52.0484 26.3467C46.9451 26.3467 42.184 27.9497 38.6399 30.8573C34.5192 34.2422 32.3355 39.2102 32.3236 45.2282C32.3156 50.5939 34.1413 55.4227 37.4705 58.8354C40.9232 62.3755 45.736 64.2529 51.3881 64.2609H51.4318C57.2511 64.2609 61.8968 62.5346 65.246 59.1298C68.8974 55.4147 70.7191 49.9495 70.5162 43.311L50.3142 43.2792L50.3022 50.24L59.7012 50.2519L59.6296 50.8326C59.2001 54.3567 56.3482 56.3774 51.8097 56.3774H51.7859C45.6643 56.3694 42.0129 52.3123 42.0209 45.5265C42.0289 40.8052 43.8228 38.1244 45.3263 36.7083C46.977 35.1531 49.2482 34.2262 51.404 34.2262H51.416C55.9265 34.2342 59.4625 37.8777 60.1905 41.4296C62.5492 40.0255 64.347 38.9198 66.5745 37.5555L68.2212 36.5452C66.4432 32.5597 62.0719 26.3666 52.0801 26.3507H52.0444L52.0484 26.3467ZM51.408 35.2684C49.5186 35.2684 47.5219 36.0878 46.0621 37.464C44.1171 39.2938 43.0869 42.0859 43.0829 45.5345C43.075 51.6679 46.3286 55.3352 51.7898 55.3432H51.8097C55.5447 55.3432 57.8875 53.9112 58.4801 51.294L49.2442 51.2781L49.2561 42.2371L59.2517 42.253C58.9415 38.9397 55.6719 35.2723 51.4199 35.2684H51.408Z" fill="#0E0E0E"/>
<path fill-rule="evenodd" clip-rule="evenodd" d="M52.049 26.3457C46.9457 26.3457 42.1847 27.9487 38.6407 30.8562C34.5199 34.2411 32.3361 39.2092 32.3242 45.2272C32.3163 50.5929 34.142 55.4216 37.4713 58.8344C40.9238 62.3745 45.7366 64.2518 51.3888 64.2598H51.4326C57.2517 64.2598 61.8975 62.5336 65.2466 59.1287C68.898 55.4138 70.7198 49.9486 70.5168 43.31L50.3148 43.2782L50.3029 50.2389L59.7019 50.2508L59.6303 50.8316C59.2007 54.3557 56.3488 56.3763 51.8103 56.3763H51.7865C45.6651 56.3683 42.0137 52.3112 42.0215 45.5255C42.0295 40.8042 43.8234 38.1233 45.3269 36.7073C46.9776 35.152 49.2488 34.2253 51.4047 34.2253H51.4166C55.9271 34.2332 59.4632 37.8767 60.1911 41.4286C62.5498 40.0246 64.3476 38.9187 66.5751 37.5545L68.2218 36.5442C66.4439 32.5586 62.0725 26.3656 52.0809 26.3497H52.045L52.049 26.3457Z" fill="#00FFA9"/>
<path fill-rule="evenodd" clip-rule="evenodd" d="M47.174 65.303H47.1342C41.1918 65.2951 36.1164 63.3063 32.457 59.5593C28.9408 55.9517 27.0078 50.8645 27.0156 45.2282C27.0236 38.896 29.3386 33.6496 33.71 30.0617C37.4449 26.9951 42.4447 25.3086 47.7946 25.3086H47.8303C58.7806 25.3245 63.3628 32.3608 65.1209 36.5531L65.2919 36.9628L62.8814 38.4386C60.6819 39.7869 58.8999 40.8807 56.5889 42.261L67.3085 42.2768V43.1718C67.5432 50.1484 65.618 55.9159 61.7438 59.8577C58.2397 63.4216 53.2001 65.307 47.1701 65.307L47.174 65.303ZM47.7946 26.3467C42.6913 26.3467 37.9302 27.9497 34.3861 30.8573C30.2653 34.2422 28.0817 39.2102 28.0697 45.2282C28.0617 50.5939 29.8876 55.4227 33.2167 58.8354C36.6692 62.3755 41.4822 64.2529 47.1342 64.2609H47.178C52.9972 64.2609 57.643 62.5346 60.9921 59.1298C64.6436 55.4147 66.4652 49.9495 66.2624 43.311L46.0603 43.2792L46.0484 50.24L55.4474 50.2519L55.3757 50.8326C54.9462 54.3567 52.0943 56.3774 47.5559 56.3774H47.532C41.4105 56.3694 37.7591 52.3123 37.7671 45.5265C37.775 40.8052 39.5689 38.1244 41.0724 36.7083C42.7231 35.1531 44.9943 34.2262 47.1502 34.2262H47.1621C51.6727 34.2342 55.2087 37.8777 55.9366 41.4296C58.2954 40.0255 60.0932 38.9198 62.3206 37.5555L63.9673 36.5452C62.1893 32.5597 57.818 26.3666 47.8263 26.3507H47.7905L47.7946 26.3467ZM47.1541 35.2684C45.2649 35.2684 43.268 36.0878 41.8083 37.464C39.8632 39.2938 38.8331 42.0859 38.829 45.5345C38.8212 51.6679 42.0748 55.3352 47.536 55.3432H47.5559C51.2909 55.3432 53.6336 53.9112 54.2262 51.294L44.9904 51.2781L45.0023 42.2371L54.998 42.253C54.6877 38.9397 51.4181 35.2723 47.1661 35.2684H47.1541Z" fill="#0E0E0E"/>
<path fill-rule="evenodd" clip-rule="evenodd" d="M47.7952 26.3457C42.692 26.3457 37.9308 27.9487 34.3868 30.8562C30.266 34.2411 28.0824 39.2092 28.0703 45.2272C28.0625 50.5929 29.8882 55.4216 33.2174 58.8344C36.6699 62.3745 41.4828 64.2518 47.1348 64.2598H47.1786C52.9978 64.2598 57.6436 62.5336 60.9927 59.1287C64.6442 55.4138 66.4659 49.9486 66.263 43.31L46.0609 43.2782L46.049 50.2389L55.448 50.2508L55.3764 50.8316C54.9468 54.3557 52.0949 56.3763 47.5565 56.3763H47.5326C41.4112 56.3683 37.7598 52.3112 37.7677 45.5255C37.7757 40.8042 39.5695 38.1233 41.0731 36.7073C42.7237 35.152 44.9949 34.2253 47.1508 34.2253H47.1627C51.6733 34.2332 55.2094 37.8767 55.9372 41.4286C58.296 40.0246 60.0938 38.9187 62.3212 37.5545L63.9679 36.5442C62.19 32.5586 57.8186 26.3656 47.827 26.3497H47.7911L47.7952 26.3457Z" fill="#00FFA9"/>
<path fill-rule="evenodd" clip-rule="evenodd" d="M42.924 65.303H42.8842C36.9418 65.2951 31.8664 63.3063 28.207 59.5593C24.6908 55.9517 22.7578 50.8645 22.7656 45.2282C22.7736 38.896 25.0886 33.6496 29.46 30.0617C33.1949 26.9951 38.1947 25.3086 43.5446 25.3086H43.5803C54.5306 25.3245 59.1128 32.3608 60.8709 36.5531L61.0419 36.9628L58.6314 38.4386C56.4319 39.7869 54.6499 40.8807 52.3389 42.261L63.0585 42.2768V43.1718C63.2932 50.1484 61.368 55.9159 57.4938 59.8577C53.9897 63.4216 48.9501 65.307 42.9201 65.307L42.924 65.303ZM43.5446 26.3467C38.4413 26.3467 33.6802 27.9497 30.1361 30.8573C26.0153 34.2422 23.8317 39.2102 23.8197 45.2282C23.8117 50.5939 25.6376 55.4227 28.9667 58.8354C32.4192 62.3755 37.2322 64.2529 42.8842 64.2609H42.928C48.7472 64.2609 53.393 62.5346 56.7421 59.1298C60.3936 55.4147 62.2152 49.9495 62.0124 43.311L41.8103 43.2792L41.7984 50.24L51.1974 50.2519L51.1257 50.8326C50.6962 54.3567 47.8443 56.3774 43.3059 56.3774H43.282C37.1605 56.3694 33.5091 52.3123 33.5171 45.5265C33.525 40.8052 35.3189 38.1244 36.8224 36.7083C38.4731 35.1531 40.7443 34.2262 42.9002 34.2262H42.9121C47.4227 34.2342 50.9587 37.8777 51.6866 41.4296C54.0454 40.0255 55.8432 38.9198 58.0706 37.5555L59.7173 36.5452C57.9393 32.5597 53.568 26.3666 43.5763 26.3507H43.5405L43.5446 26.3467ZM42.9041 35.2684C41.0148 35.2684 39.018 36.0878 37.5583 37.464C35.6132 39.2938 34.5831 42.0859 34.579 45.5345C34.5712 51.6679 37.8248 55.3352 43.286 55.3432H43.3059C47.0409 55.3432 49.3836 53.9112 49.9763 51.294L40.7404 51.2781L40.7523 42.2371L50.748 42.253C50.4377 38.9397 47.1681 35.2723 42.9161 35.2684H42.9041Z" fill="#0E0E0E"/>
<path fill-rule="evenodd" clip-rule="evenodd" d="M43.5413 26.3457C38.4381 26.3457 33.6769 27.9487 30.1329 30.8562C26.012 34.2411 23.8285 39.2092 23.8164 45.2272C23.8086 50.5929 25.6343 55.4216 28.9635 58.8344C32.416 62.3745 37.2289 64.2518 42.8809 64.2598H42.9247C48.7439 64.2598 53.3897 62.5336 56.7388 59.1287C60.3903 55.4138 62.2119 49.9486 62.0091 43.31L41.807 43.2782L41.7951 50.2389L51.1941 50.2508L51.1225 50.8316C50.6929 54.3557 47.841 56.3763 43.3026 56.3763H43.2787C37.1572 56.3683 33.5059 52.3112 33.5138 45.5255C33.5218 40.8042 35.3156 38.1233 36.8192 36.7073C38.4698 35.152 40.741 34.2253 42.8969 34.2253H42.9088C47.4194 34.2332 50.9555 37.8767 51.6833 41.4286C54.0421 40.0246 55.8399 38.9187 58.0673 37.5545L59.714 36.5442C57.936 32.5586 53.5647 26.3656 43.5731 26.3497H43.5372L43.5413 26.3457Z" fill="#00FFA9"/>
<path fill-rule="evenodd" clip-rule="evenodd" d="M38.6662 65.303H38.6264C32.6838 65.2951 27.6085 63.3063 23.9491 59.5593C20.4329 55.9517 18.4999 50.8645 18.5078 45.2282C18.5158 38.896 20.8307 33.6496 25.2021 30.0617C28.937 26.9951 33.9368 25.3086 39.2866 25.3086H39.3225C50.2727 25.3245 54.8549 32.3608 56.6129 36.5531L56.784 36.9628L54.3736 38.4386C52.174 39.7869 50.3921 40.8807 48.081 42.261L58.8006 42.2768V43.1718C59.0353 50.1484 57.1102 55.9159 53.236 59.8577C49.7317 63.4216 44.6922 65.307 38.6621 65.307L38.6662 65.303ZM39.2866 26.3467C34.1834 26.3467 29.4222 27.9497 25.8782 30.8573C21.7575 34.2422 19.5738 39.2102 19.5619 45.2282C19.5539 50.5939 21.3796 55.4227 24.7088 58.8354C28.1614 62.3755 32.9743 64.2529 38.6264 64.2609H38.6701C44.4894 64.2609 49.1351 62.5346 52.4843 59.1298C56.1357 55.4147 57.9574 49.9495 57.7545 43.311L37.5525 43.2792L37.5405 50.24L46.9395 50.2519L46.8679 50.8326C46.4384 54.3567 43.5865 56.3774 39.048 56.3774H39.0241C32.9026 56.3694 29.2512 52.3123 29.2592 45.5265C29.2672 40.8052 31.0611 38.1244 32.5646 36.7083C34.2153 35.1531 36.4864 34.2262 38.6422 34.2262H38.6543C43.1648 34.2342 46.7008 37.8777 47.4288 41.4296C49.7874 40.0255 51.5853 38.9198 53.8128 37.5555L55.4595 36.5452C53.6815 32.5597 49.3102 26.3666 39.3184 26.3507H39.2827L39.2866 26.3467ZM38.6463 35.2684C36.7569 35.2684 34.7602 36.0878 33.3004 37.464C31.3554 39.2938 30.3252 42.0859 30.3212 45.5345C30.3133 51.6679 33.5669 55.3352 39.0281 55.3432H39.048C42.7829 55.3432 45.1258 53.9112 45.7184 51.294L36.4825 51.2781L36.4944 42.2371L46.49 42.253C46.1797 38.9397 42.9102 35.2723 38.6582 35.2684H38.6463Z" fill="#0E0E0E"/>
<path fill-rule="evenodd" clip-rule="evenodd" d="M39.2912 26.3457C34.1879 26.3457 29.4268 27.9487 25.8829 30.8562C21.7621 34.2411 19.5783 39.2092 19.5664 45.2272C19.5585 50.5929 21.3842 55.4216 24.7135 58.8344C28.166 62.3745 32.9788 64.2518 38.6309 64.2598H38.6746C44.4939 64.2598 49.1397 62.5336 52.4888 59.1287C56.1402 55.4138 57.9619 49.9486 57.759 43.31L37.557 43.2782L37.5451 50.2389L46.9441 50.2508L46.8725 50.8316C46.4429 54.3557 43.591 56.3763 39.0525 56.3763H39.0287C32.9072 56.3683 29.2557 52.3112 29.2637 45.5255C29.2717 40.8042 31.0656 38.1233 32.5691 36.7073C34.2198 35.152 36.491 34.2253 38.6469 34.2253H38.6588C43.1693 34.2332 46.7053 37.8767 47.4333 41.4286C49.792 40.0246 51.5898 38.9187 53.8173 37.5545L55.464 36.5442C53.686 32.5586 49.3147 26.3656 39.3231 26.3497H39.2872L39.2912 26.3457Z" fill="#00FFA9"/>
<path fill-rule="evenodd" clip-rule="evenodd" d="M34.4162 65.303H34.3764C28.4338 65.2951 23.3585 63.3063 19.6991 59.5593C16.1829 55.9517 14.2499 50.8645 14.2578 45.2282C14.2658 38.896 16.5807 33.6496 20.952 30.0617C24.687 26.9951 29.6868 25.3086 35.0366 25.3086H35.0725C46.0227 25.3245 50.6049 32.3608 52.3629 36.5531L52.534 36.9628L50.1236 38.4386C47.924 39.7869 46.1421 40.8807 43.831 42.261L54.5506 42.2768V43.1718C54.7853 50.1484 52.8602 55.9159 48.986 59.8577C45.4817 63.4216 40.4422 65.307 34.4121 65.307L34.4162 65.303ZM35.0366 26.3467C29.9334 26.3467 25.1722 27.9497 21.6282 30.8573C17.5075 34.2422 15.3238 39.2102 15.3119 45.2282C15.3039 50.5939 17.1296 55.4227 20.4588 58.8354C23.9114 62.3755 28.7243 64.2529 34.3764 64.2609H34.4201C40.2394 64.2609 44.8851 62.5346 48.2343 59.1298C51.8857 55.4147 53.7074 49.9495 53.5045 43.311L33.3025 43.2792L33.2905 50.24L42.6895 50.2519L42.6179 50.8326C42.1884 54.3567 39.3365 56.3774 34.798 56.3774H34.7741C28.6526 56.3694 25.0012 52.3123 25.0092 45.5265C25.0172 40.8052 26.8111 38.1244 28.3146 36.7083C29.9653 35.1531 32.2364 34.2262 34.3923 34.2262H34.4043C38.9148 34.2342 42.4508 37.8777 43.1788 41.4296C45.5374 40.0255 47.3353 38.9198 49.5628 37.5555L51.2095 36.5452C49.4315 32.5597 45.0602 26.3666 35.0684 26.3507H35.0327L35.0366 26.3467ZM34.3963 35.2684C32.5069 35.2684 30.5102 36.0878 29.0504 37.464C27.1054 39.2938 26.0752 42.0859 26.0712 45.5345C26.0633 51.6679 29.3169 55.3352 34.7781 55.3432H34.798C38.5329 55.3432 40.8758 53.9112 41.4684 51.294L32.2325 51.2781L32.2444 42.2371L42.24 42.253C41.9297 38.9397 38.6602 35.2723 34.4082 35.2684H34.3963Z" fill="#0E0E0E"/>
<path fill-rule="evenodd" clip-rule="evenodd" d="M35.0334 26.3457C29.9301 26.3457 25.169 27.9487 21.6249 30.8562C17.5042 34.2411 15.3205 39.2092 15.3086 45.2272C15.3006 50.5929 17.1263 55.4216 20.4555 58.8344C23.9082 62.3745 28.721 64.2518 34.3731 64.2598H34.4168C40.2361 64.2598 44.8818 62.5336 48.231 59.1287C51.8824 55.4138 53.7041 49.9486 53.5012 43.31L33.2992 43.2782L33.2872 50.2389L42.6862 50.2508L42.6146 50.8316C42.1851 54.3557 39.3332 56.3763 34.7947 56.3763H34.7709C28.6493 56.3683 24.9979 52.3112 25.0059 45.5255C25.0139 40.8042 26.8078 38.1233 28.3113 36.7073C29.962 35.152 32.2332 34.2253 34.389 34.2253H34.401C38.9115 34.2332 42.4475 37.8767 43.1755 41.4286C45.5342 40.0246 47.332 38.9187 49.5595 37.5545L51.2062 36.5442C49.4282 32.5586 45.0569 26.3656 35.0652 26.3497H35.0294L35.0334 26.3457Z" fill="#00FFA9"/>
<path fill-rule="evenodd" clip-rule="evenodd" d="M30.1583 65.303H30.1186C24.1761 65.2951 19.1007 63.3063 15.4414 59.5593C11.9252 55.9517 9.99207 50.8645 10 45.2282C10.008 38.896 12.3229 33.6496 16.6943 30.0617C20.4293 26.9951 25.4291 25.3086 30.7789 25.3086H30.8146C41.7649 25.3245 46.3471 32.3608 48.1052 36.5531L48.2763 36.9628L45.8658 38.4386C43.6663 39.7869 41.8843 40.8807 39.5733 42.261L50.2929 42.2768V43.1718C50.5275 50.1484 48.6024 55.9159 44.7282 59.8577C41.224 63.4216 36.1844 65.307 30.1544 65.307L30.1583 65.303ZM30.7789 26.3467C25.6757 26.3467 20.9145 27.9497 17.3705 30.8573C13.2497 34.2422 11.066 39.2102 11.0541 45.2282C11.0461 50.5939 12.8718 55.4227 16.2011 58.8354C19.6536 62.3755 24.4664 64.2529 30.1186 64.2609H30.1624C35.9815 64.2609 40.6274 62.5346 43.9764 59.1298C47.6278 55.4147 49.4496 49.9495 49.2468 43.311L29.0446 43.2792L29.0327 50.24L38.4318 50.2519L38.3601 50.8326C37.9305 54.3567 35.0786 56.3774 30.5402 56.3774H30.5164C24.3949 56.3694 20.7435 52.3123 20.7514 45.5265C20.7593 40.8052 22.5532 38.1244 24.0567 36.7083C25.7075 35.1531 27.9787 34.2262 30.1345 34.2262H30.1464C34.6571 34.2342 38.1931 37.8777 38.9209 41.4296C41.2796 40.0255 43.0776 38.9198 45.305 37.5555L46.9517 36.5452C45.1737 32.5597 40.8023 26.3666 30.8107 26.3507H30.7749L30.7789 26.3467ZM30.1385 35.2684C28.2491 35.2684 26.2524 36.0878 24.7927 37.464C22.8476 39.2938 21.8174 42.0859 21.8134 45.5345C21.8054 51.6679 25.0592 55.3352 30.5203 55.3432H30.5402C34.2751 55.3432 36.618 53.9112 37.2106 51.294L27.9746 51.2781L27.9866 42.2371L37.9822 42.253C37.672 38.9397 34.4025 35.2723 30.1504 35.2684H30.1385Z" fill="#0E0E0E"/>
<path fill-rule="evenodd" clip-rule="evenodd" d="M30.7834 26.3457C25.6802 26.3457 20.919 27.9487 17.375 30.8562C13.2542 34.2411 11.0706 39.2092 11.0586 45.2272C11.0507 50.5929 12.8764 55.4216 16.2056 58.8344C19.6581 62.3745 24.471 64.2518 30.1231 64.2598H30.1669C35.986 64.2598 40.6319 62.5336 43.9809 59.1287C47.6323 55.4138 49.4541 49.9486 49.2513 43.31L29.0491 43.2782L29.0372 50.2389L38.4362 50.2508L38.3646 50.8316C37.935 54.3557 35.0831 56.3763 30.5448 56.3763H30.5209C24.3994 56.3683 20.748 52.3112 20.756 45.5255C20.7639 40.8042 22.5577 38.1233 24.0612 36.7073C25.712 35.152 27.9832 34.2253 30.139 34.2253H30.1509C34.6616 34.2332 38.1976 37.8767 38.9254 41.4286C41.2842 40.0246 43.0821 38.9187 45.3095 37.5545L46.9562 36.5442C45.1782 32.5586 40.8068 26.3656 30.8152 26.3497H30.7794L30.7834 26.3457Z" fill="#00FFA9"/>
</svg>
