<svg width="44" height="35" viewBox="0 0 44 35" fill="none" xmlns="http://www.w3.org/2000/svg">
<path d="M26.8277 31.8793C30.2055 22.0445 23.2372 9.14582 36.7956 5.00311C35.1217 4.19558 33.5704 3.53686 31.875 2.8672C31.08 2.07498 33.6348 0.409584 34.3181 0.0419265C36.1638 -0.345427 39.8252 2.05529 41.5979 2.9613C45.7492 5.43423 43.8756 6.83702 40.8265 9.05391C38.7315 10.2335 36.7612 11.7085 34.6533 12.7961C34.3353 12.8508 34.2322 12.7305 34.3224 12.4153C35.1454 9.8877 37.4337 8.24418 39.6147 6.97051C37.6314 7.59203 33.5424 7.22 32.3778 9.17646C30.676 14.188 31.673 19.6481 31.2863 24.8478C31.2712 29.1197 28.6863 34.5733 24.0988 35C21.9501 34.1728 20.7963 27.7585 20.1882 25.4956C19.3029 20.5629 18.3231 15.5864 16.0519 11.0957C13.5809 16.1029 9.10731 21.2282 3.3853 21.9285C2.04236 21.9876 1.01957 21.1516 0.0612479 20.3112C-0.381386 19.3023 1.69427 18.0484 2.4635 17.5625C4.00198 16.6828 4.797 19.9523 7.74933 18.694C10.5491 17.5582 12.2616 14.5272 13.1125 11.7129C13.669 10.0912 13.1899 8.10194 14.1826 6.66413C14.969 5.8763 16.7954 3.72288 17.7344 5.18694C23.4306 13.0566 22.3541 23.5501 26.832 31.8815L26.8277 31.8793Z" fill="#04251A"/>
</svg>
