<svg width="172" height="39" viewBox="0 0 172 39" fill="none" xmlns="http://www.w3.org/2000/svg">
<path d="M49.7123 0H44.293V32.0329H49.7123V0Z" fill="#B5B5B5"/>
<path d="M13.005 17.5597C10.8158 15.0921 9.25426 13.7246 7.10336 11.6772C6.42211 10.9667 6.10828 10.4778 6.10828 9.32419C6.10828 7.8421 6.10828 7.50596 6.11593 6.75728V5.77177C6.11593 5.24463 6.54458 4.81681 7.07274 4.81681C7.13398 4.81681 7.18756 4.81681 7.24114 4.83209C7.2641 4.83209 7.28707 4.83973 7.30237 4.84737C7.30237 4.84737 7.31003 4.84737 7.31768 4.84737C7.72337 4.96197 8.0219 5.32867 8.0219 5.77177V11.555H14.046V5.84052C14.046 1.59289 10.6703 0.0878906 6.98854 0.0878906C3.30674 0.0878906 -0.00764123 1.66165 1.32323e-05 5.87108V10.3403C1.32323e-05 11.83 0.329156 12.6169 0.849659 13.5489C2.46475 16.0929 5.72555 18.3848 7.15694 20.0731C7.94535 20.967 8.01424 21.6851 8.01424 22.4185V25.948C8.01424 25.948 8.01424 26.2612 8.01424 26.521V26.9488C8.01424 27.0557 7.99128 27.1551 7.96066 27.2544C7.96066 27.2544 7.96066 27.2544 7.96066 27.262C7.89942 27.453 7.79226 27.6134 7.63917 27.7357C7.53966 27.8121 7.44781 27.8579 7.33299 27.8885C7.24114 27.919 7.14163 27.9343 7.04212 27.9343C6.5752 27.9343 6.18482 27.5982 6.10062 27.1627C6.08531 27.1016 6.08531 27.0405 6.08531 26.9794V26.9641L6.07 26.3147C6.07 26.1161 6.07 26.032 6.07 25.8716V20.0731H0.0535972V26.8418C0.0535972 31.0818 3.42156 32.6479 7.11101 32.6479C10.8005 32.6479 14.1761 31.0818 14.1761 26.6279V21.4406C14.1761 19.3474 13.7857 18.4383 13.005 17.5673" fill="#B5B5B5"/>
<path d="M28.4017 15.3791V11.9489C28.4017 8.11384 25.4165 6.19629 22.0256 6.19629C18.6346 6.19629 15.6953 8.11384 15.6953 11.9489V26.5788C15.6953 30.4215 18.5964 32.3391 22.0256 32.3391C25.4548 32.3391 28.4017 30.4215 28.4017 26.5788V21.9186H22.9824V26.808C22.9824 26.8615 22.9824 26.9149 22.9824 26.9608V27.2205C22.9824 27.6942 22.6303 28.0762 22.171 28.1296C22.171 28.1296 22.171 28.1296 22.1633 28.1296C22.1251 28.1296 22.0868 28.1373 22.0409 28.1373C21.8036 28.1373 21.6275 28.0532 21.4897 27.9234C21.2831 27.7553 21.1529 27.5032 21.1529 27.2129V27.1212C21.1376 27.0143 21.13 26.8997 21.13 26.8003V11.7274C21.13 11.6663 21.13 11.6051 21.1376 11.544V11.2919C21.1376 10.7877 21.551 10.3752 22.0562 10.3752C22.5614 10.3752 22.9747 10.7877 22.9747 11.2919V11.4294C22.99 11.5287 22.9977 11.6281 22.9977 11.7274V15.3715H28.417L28.4017 15.3791Z" fill="#B5B5B5"/>
<path d="M38.9835 6.20337C37.5292 6.20337 35.6997 7.18888 35.4854 8.75501H35.2787V0H29.8594V32.0329H35.2787V12.2005C35.2787 12.1394 35.2787 12.0859 35.2787 12.0248V11.7803C35.2787 11.3907 35.5237 11.0545 35.8681 10.9247C35.8834 10.9247 35.8988 10.917 35.9141 10.9094C35.9217 10.9094 35.9294 10.9094 35.937 10.9094C35.9523 10.9094 35.9676 10.9094 35.9829 10.9017C36.0518 10.8865 36.1284 10.8712 36.2049 10.8712C36.7101 10.8712 37.1235 11.2837 37.1235 11.7956V12.0018C37.1235 12.0706 37.1311 12.1394 37.1311 12.2158V32.0482H42.5505V11.8109C42.5505 8.86196 42.4204 6.21865 38.9682 6.21865" fill="#B5B5B5"/>
<path d="M58.7325 6.50977V26.3422C58.7325 26.3957 58.7325 26.4492 58.7325 26.5027V26.7624C58.7325 27.2743 58.3192 27.6868 57.8063 27.6868C57.7374 27.6868 57.6685 27.6792 57.5997 27.6639C57.5308 27.6486 57.4619 27.6257 57.4006 27.5951C57.0868 27.45 56.8725 27.1291 56.8725 26.7624V26.495C56.8725 26.4415 56.8725 26.3957 56.8725 26.3422V6.50977H51.4531V27.7708C51.4531 30.46 52.4329 32.3393 55.2497 32.3393C56.8725 32.3393 58.7096 30.9031 58.7096 29.1612H58.7938L58.7402 32.0261H64.1595V6.50977H58.7402H58.7325Z" fill="#B5B5B5"/>
<path d="M82.2945 6.20312C80.1129 6.20312 79.5082 7.1428 78.5591 8.84643C77.9161 6.78374 76.9823 6.20312 75.061 6.20312C72.8795 6.20312 72.2748 7.09696 71.4098 8.80059H71.3256V6.51635H65.9062V32.0327H71.3256V12.2002C71.3256 12.1315 71.3256 12.0627 71.3333 11.9863V11.8106C71.3333 11.2758 71.7619 10.848 72.2977 10.848C72.8335 10.848 73.2622 11.2758 73.2622 11.8106V12.0856C73.2622 12.0856 73.2622 12.162 73.2622 12.2002V32.0327H78.6816V12.2002C78.6816 12.1315 78.6815 12.0551 78.6892 11.9787V11.8106C78.6892 11.2758 79.1179 10.848 79.6537 10.848C80.1895 10.848 80.6181 11.2758 80.6181 11.8106V12.0933C80.6181 12.0933 80.6181 12.162 80.6181 12.2002V32.0327H86.0375V10.9473C86.0375 9.02214 85.693 6.20312 82.2792 6.20312" fill="#B5B5B5"/>
<path d="M96.611 6.20337C94.9882 6.20337 93.664 7.28056 93.2047 8.75501H93.1205V0H87.7012V32.0253H93.1205V29.3361H93.2047C93.664 31.1315 94.9882 32.3385 96.611 32.3385C99.9789 32.3385 100.408 29.4737 100.408 26.6164V11.7956C100.408 8.93836 99.9789 6.20337 96.611 6.20337ZM94.9882 14.0034V26.7539C94.9882 27.2658 94.5749 27.686 94.0544 27.686C94.0467 27.686 94.0391 27.686 94.0238 27.686C93.8477 27.686 93.6946 27.6325 93.5798 27.5561C93.3042 27.3957 93.1205 27.0977 93.1205 26.7539V24.5308V12.2005C93.1205 12.1623 93.1205 12.1241 93.1205 12.0859V11.7803C93.1205 11.2684 93.5339 10.8483 94.0467 10.8483C94.5596 10.8483 94.9806 11.2608 94.9806 11.7803V14.0034H94.9882Z" fill="#B5B5B5"/>
<path d="M114.742 11.9566C114.742 8.12147 111.756 6.19629 108.373 6.19629C104.99 6.19629 102.035 8.11383 102.035 11.9566V26.5788C102.035 30.4215 104.936 32.3467 108.373 32.3467C111.81 32.3467 114.742 30.4292 114.742 26.5788V21.9186H109.322V26.8003C109.322 26.8003 109.322 26.8691 109.322 26.8997V27.2282C109.322 27.74 108.909 28.1526 108.388 28.1526C107.868 28.1526 107.462 27.74 107.462 27.2282V26.8233C107.462 26.8233 107.462 26.808 107.462 26.8003V20.1233H114.749V11.9489L114.742 11.9566ZM109.322 16.3188H107.455V11.735C107.455 11.6892 107.455 11.6433 107.455 11.5975V11.3225C107.455 10.8106 107.868 10.3904 108.381 10.3904C108.894 10.3904 109.307 10.8106 109.307 11.3225V16.3188H109.322Z" fill="#B5B5B5"/>
<path d="M125.757 6.20393C123.881 6.20393 122.71 7.1436 121.929 8.70973H121.845V6.51715H116.426V32.0335H121.845V12.201C121.845 12.201 121.845 12.1399 121.845 12.1094V11.7809C121.845 11.3989 122.082 11.0627 122.419 10.9252C122.465 10.9023 122.519 10.887 122.58 10.8717H122.618C122.618 10.8717 122.618 10.8641 122.626 10.8641C122.672 10.8641 122.718 10.8488 122.771 10.8488C123.284 10.8488 123.698 11.2614 123.698 11.7732V12.0406C123.698 12.0941 123.698 12.1399 123.698 12.1934V20.2608H129.117V10.6731C129.117 7.89992 128.436 6.19629 125.741 6.19629" fill="#B5B5B5"/>
<path d="M157.429 11.9558C157.429 8.12067 154.444 6.20312 151.061 6.20312C147.677 6.20312 144.723 8.12831 144.723 11.9558V26.578C144.723 30.4207 147.624 32.3459 151.061 32.3459C154.497 32.3459 157.429 30.4284 157.429 26.578V21.9178H152.01V24.9813V27.2197C152.01 27.7316 151.589 28.1518 151.068 28.1518C150.548 28.1518 150.134 27.7316 150.134 27.2197V24.9813V20.1302H157.421V11.9558H157.429ZM152.01 13.5448V16.318H150.142V13.5448V11.3217C150.142 10.8098 150.563 10.3896 151.076 10.3896C151.589 10.3896 152.01 10.8022 152.01 11.3217V13.5448Z" fill="#B5B5B5"/>
<path d="M168.237 6.20312C166.362 6.20312 165.19 7.1428 164.402 8.70892H164.318V6.51635H158.898V32.0327H164.318V11.7724C164.318 11.2606 164.731 10.848 165.244 10.848C165.757 10.848 166.178 11.2682 166.178 11.7724V12.1009C166.178 12.1009 166.178 12.1697 166.178 12.2002V20.2677H171.597V10.6799C171.597 7.90676 170.916 6.20312 168.229 6.20312" fill="#B5B5B5"/>
<path d="M137.832 6.51635V8.89227H137.625C137.005 7.45602 135.582 6.20312 133.959 6.20312C131.486 6.20312 130.545 8.30402 130.545 10.7716V26.1502C130.545 28.5949 131.486 30.4589 133.959 30.4589C135.582 30.4589 137.005 29.4352 137.625 28.0142H137.832V33.7058C137.832 33.7516 137.832 33.7898 137.832 33.8356V34.1412C137.832 34.6531 137.419 35.0656 136.906 35.0656C136.393 35.0656 135.98 34.6531 135.98 34.1412V33.8815C135.98 33.828 135.98 33.7745 135.98 33.7134V31.8264H130.56V33.2321C130.56 37.4339 133.163 39 136.936 39C140.71 39 143.267 37.4339 143.267 33.2321V6.51635H137.847H137.832ZM137.832 25.0959C137.832 25.6078 137.411 26.0279 136.898 26.0279C136.385 26.0279 135.964 25.6078 135.964 25.0959V22.8651V11.7724C135.964 11.2606 136.385 10.848 136.89 10.848C137.396 10.848 137.824 11.2606 137.824 11.7724V22.8651V25.0959H137.832Z" fill="#B5B5B5"/>
</svg>
