<svg width="166" height="51" viewBox="0 0 166 51" fill="none" xmlns="http://www.w3.org/2000/svg">
<g clip-path="url(#clip0_6413_34365)">
<path fill-rule="evenodd" clip-rule="evenodd" d="M6.57552 6.54277H23.7684L17.1928 0H0V17.1073L6.57552 23.65V6.54277ZM27.3184 6.54277H44.5112V23.65L51.0867 17.1073V0H33.8939L27.3184 6.54277ZM44.5112 27.1822V44.2895H27.3184L33.8939 50.8323H51.0867V33.725L44.5112 27.1822ZM23.7684 44.2895H6.57552V27.1822L0 33.725V50.8323H17.1928L23.7684 44.2895Z" fill="#ABABAB"/>
<path fill-rule="evenodd" clip-rule="evenodd" d="M92.9126 38.7411C95.107 38.7411 96.8876 40.7298 96.8876 43.1797C96.8876 45.6296 95.107 47.6184 92.9126 47.6184C90.7184 47.6184 88.9379 45.6296 88.9379 43.1797C88.9379 40.7298 90.7184 38.7411 92.9126 38.7411ZM92.9126 35.3595C97.2846 35.3595 100.83 38.8616 100.83 43.1798C100.83 47.4979 97.2846 51 92.9126 51C88.5408 51 84.9953 47.4979 84.9953 43.1798C84.9953 38.8616 88.5408 35.3595 92.9126 35.3595ZM111.429 38.7411C112.786 38.7411 114.062 39.3457 114.779 40.5052L117.38 38.0233C115.929 36.3907 113.801 35.3595 111.429 35.3595C107.057 35.3595 103.511 38.8616 103.511 43.1798C103.511 47.4979 107.057 51 111.429 51C113.856 51 116.027 49.9203 117.48 48.2215L114.777 45.9191C114.056 47.0417 112.76 47.6184 111.429 47.6184C109.235 47.6184 107.454 45.6296 107.454 43.1797C107.454 40.7298 109.235 38.7411 111.429 38.7411ZM137.6 44.2061H148.972C149.015 43.8702 149.037 43.5276 149.037 43.1798C149.037 38.8616 145.618 35.3595 141.401 35.3595C137.184 35.3595 133.764 38.8616 133.764 43.1798C133.764 47.4979 137.184 51 141.401 51C143.806 51 146.571 50.5938 147.971 48.814L146.232 46.3101C145.36 47.5578 143.052 47.9052 141.58 47.9052C139.633 47.9052 138.005 46.3215 137.6 44.2061ZM137.686 41.775C138.203 39.8519 139.751 38.4541 141.58 38.4541C143.408 38.4541 144.957 39.8519 145.473 41.775H137.686ZM119.776 35.7168H132.015V39.0722H127.785V50.6425H124.006V39.0722H119.776V35.7168ZM155.293 42.9479L150.141 35.7168H154.692L157.776 40.3372L160.859 35.7168H165.41L160.258 42.9479L165.643 50.6425H161.245L157.776 45.6467L154.306 50.6425H149.908L155.293 42.9479ZM157.776 41.0364L157.758 41.0658L157.776 41.0662L157.793 41.0658L157.776 41.0364ZM75.8019 33.7564C77.4433 33.7564 78.7743 35.0808 78.7743 36.714C78.7743 38.3473 77.4433 39.6717 75.8019 39.6717H70.7918V33.7564H75.8019ZM66.6406 30.2441H76.6564C80.247 30.2441 83.1587 33.1414 83.1587 36.7139C83.1587 40.2867 80.2469 43.1839 76.6564 43.1839H70.7918V50.6425H66.6406V30.2441Z" fill="black"/>
<path fill-rule="evenodd" clip-rule="evenodd" d="M92.9126 38.7411C95.107 38.7411 96.8876 40.7298 96.8876 43.1797C96.8876 45.6296 95.107 47.6184 92.9126 47.6184C90.7184 47.6184 88.9379 45.6296 88.9379 43.1797C88.9379 40.7298 90.7184 38.7411 92.9126 38.7411ZM92.9126 35.3595C97.2846 35.3595 100.83 38.8616 100.83 43.1798C100.83 47.4979 97.2846 51 92.9126 51C88.5408 51 84.9953 47.4979 84.9953 43.1798C84.9953 38.8616 88.5408 35.3595 92.9126 35.3595ZM111.429 38.7411C112.786 38.7411 114.062 39.3457 114.779 40.5052L117.38 38.0233C115.929 36.3907 113.801 35.3595 111.429 35.3595C107.057 35.3595 103.511 38.8616 103.511 43.1798C103.511 47.4979 107.057 51 111.429 51C113.856 51 116.027 49.9203 117.48 48.2215L114.777 45.9191C114.056 47.0417 112.76 47.6184 111.429 47.6184C109.235 47.6184 107.454 45.6296 107.454 43.1797C107.454 40.7298 109.235 38.7411 111.429 38.7411ZM137.6 44.2061H148.972C149.015 43.8702 149.037 43.5276 149.037 43.1798C149.037 38.8616 145.618 35.3595 141.401 35.3595C137.184 35.3595 133.764 38.8616 133.764 43.1798C133.764 47.4979 137.184 51 141.401 51C143.806 51 146.571 50.5938 147.971 48.814L146.232 46.3101C145.36 47.5578 143.052 47.9052 141.58 47.9052C139.633 47.9052 138.005 46.3215 137.6 44.2061ZM137.686 41.775C138.203 39.8519 139.751 38.4541 141.58 38.4541C143.408 38.4541 144.957 39.8519 145.473 41.775H137.686ZM119.776 35.7168H132.015V39.0722H127.785V50.6425H124.006V39.0722H119.776V35.7168ZM155.293 42.9479L150.141 35.7168H154.692L157.776 40.3372L160.859 35.7168H165.41L160.258 42.9479L165.643 50.6425H161.245L157.776 45.6467L154.306 50.6425H149.908L155.293 42.9479ZM157.776 41.0364L157.758 41.0658L157.776 41.0662L157.793 41.0658L157.776 41.0364ZM75.8019 33.7564C77.4433 33.7564 78.7743 35.0808 78.7743 36.714C78.7743 38.3473 77.4433 39.6717 75.8019 39.6717H70.7918V33.7564H75.8019ZM66.6406 30.2441H76.6564C80.247 30.2441 83.1587 33.1414 83.1587 36.7139C83.1587 40.2867 80.2469 43.1839 76.6564 43.1839H70.7918V50.6425H66.6406V30.2441Z" fill="#ABABAB"/>
</g>
<defs>
<clipPath id="clip0_6413_34365">
<rect width="166" height="51" fill="white"/>
</clipPath>
</defs>
</svg>
