<svg width="187" height="60" viewBox="0 0 187 60" fill="none" xmlns="http://www.w3.org/2000/svg">
<path d="M12.2578 51.1759C4.31443 51.1759 0 45.2698 0 37.8696C0 30.3939 5.07841 24.2612 13.4169 24.2612C15.6303 24.2612 17.5508 24.5606 19.22 25.4586V30.2806C17.0065 28.9349 15.2326 28.6706 13.6 28.6706C7.94336 28.6706 5.85548 32.9721 5.85548 37.4947C5.85548 42.5405 8.48495 46.54 13.0898 46.54C15.1227 46.54 16.758 45.9602 18.715 44.876L20.1253 48.7838C17.1923 50.6905 14.6858 51.1759 12.2578 51.1759ZM101.579 51.1759C95.7023 51.1759 92.6935 46.7288 92.6935 41.4213C92.6935 35.4775 96.6835 31.5508 102.013 31.5508C104.37 31.5508 105.603 32.0363 106.581 32.635V36.8987C105.276 35.9252 104.224 35.588 102.774 35.588C99.7656 35.588 97.8269 37.8696 97.8269 41.1598C97.8269 44.1128 99.3287 46.9904 102.701 46.9904C103.643 46.9904 104.891 46.5696 106.231 45.8604L107.487 49.3825C105.966 50.4288 103.429 51.1759 101.579 51.1759ZM117.923 36.1867V50.8037H112.701V36.1867H107.625V31.9257H123.656L122.523 36.1867H117.923ZM143.177 34.1317C143.177 40.7094 142.923 44.1506 141.764 45.7201C141.183 46.5049 140.278 47.0308 139.333 47.1764L140.783 51.1759C141.978 51.1381 143.831 50.6149 145.1 49.307C146.769 47.6241 147.311 45.4936 147.564 43.2498C147.782 41.3431 147.928 39.1021 147.928 37.1199V36.184H152.012V50.801H157.235V31.923H143.177V34.1317ZM83.9626 31.5508C81.9323 31.5508 80.3729 32.5622 79.0307 33.6463L78.4499 31.9257H74.0622V60L79.2845 58.3549V50.3911C80.229 50.9143 81.4613 51.1759 82.8035 51.1759C88.2064 51.1759 91.469 46.4294 91.469 40.8226C91.469 34.841 88.1698 31.5508 83.9626 31.5508ZM81.5346 47.2897C80.5901 47.2897 79.8653 46.9526 79.2845 46.5427V37.608C79.902 36.6371 81.5346 35.4775 82.9108 35.4775C85.0144 35.4775 86.2467 36.861 86.2467 40.7498C86.2467 43.9645 85.0876 47.2897 81.5346 47.2897ZM131.16 31.5508C128.692 31.5508 126.304 31.9446 123.797 33.6166L125.38 36.8744C126.61 36.1598 128.193 35.6042 130.045 35.6042C131.856 35.6042 133.475 36.4295 133.475 38.4144V38.7353L130.309 38.8593C125.689 39.0184 122.567 41.0842 122.567 45.0567C122.567 48.7946 125.184 51.1759 128.653 51.1759C131.008 51.1759 132.625 50.2643 133.818 49.1505L134.629 50.8037H138.716V38.5438C138.716 33.5762 136.018 31.5508 131.16 31.5508ZM133.475 46.1301C132.975 46.5265 131.932 47.0038 130.545 47.0038C128.768 47.0038 127.769 46.0896 127.769 44.663C127.769 43.2309 128.847 42.4381 131.084 42.3572L133.475 42.2789V46.1301ZM167.378 38.0557H164.694V31.1032L159.472 32.546V50.8037H166.146C171.005 50.8037 175.539 49.4553 175.539 44.2611C175.539 39.8518 171.876 38.0557 167.378 38.0557ZM166.507 47.0794H164.694V41.8097H166.436C168.284 41.8097 170.317 42.109 170.317 44.3501C170.317 46.5562 168.574 47.0794 166.507 47.0794ZM50.601 40.5233V40.3723C52.3043 40.0001 53.7197 38.8405 53.7197 36.3728C53.7197 33.4279 51.3205 32.3545 48.9631 32.0282C48.241 31.9284 46.6581 31.9257 45.7764 31.9257H38.3118V50.8037H44.5807C45.274 50.8037 46.3075 50.801 47.1134 50.7767C50.41 50.6149 54.4811 49.4014 54.4811 45.0082C54.4811 42.3167 53.0656 40.971 50.601 40.5233ZM43.6362 35.5206H45.7764C47.914 35.5206 48.7146 36.1948 48.7146 37.3545C48.7146 38.8108 47.409 39.2585 45.2322 39.2585H43.6362V35.5206ZM45.6665 47.2223H43.5263V42.5864H45.4127C47.914 42.5864 49.2562 43.1851 49.2562 44.8679C49.2562 46.6613 47.4796 47.2223 45.6665 47.2223ZM36.5928 41.1975C36.5928 35.3642 33.1104 31.5508 28.1053 31.5508C22.6292 31.5508 19.5471 36.1112 19.5471 41.4213C19.5471 46.3917 22.2315 51.1759 28.7594 51.1759C30.9702 51.1759 33.4349 50.6554 35.9754 49.0076L34.8137 45.6069C32.7467 46.6182 31.4045 46.9526 29.628 46.9526C27.1974 46.9526 24.8766 45.383 24.7668 42.8399H36.5928V41.1975ZM24.6595 39.1425C24.6595 37.4219 25.8578 35.4775 27.9588 35.4775C30.1748 35.4775 31.1507 37.3464 31.2606 39.1425H24.6595ZM72.5682 41.1975C72.5682 35.3642 69.0858 31.5508 64.0807 31.5508C58.6045 31.5508 55.5224 36.1112 55.5224 41.4213C55.5224 46.3917 58.2069 51.1759 64.7347 51.1759C66.9456 51.1759 69.4128 50.6554 71.9508 49.0076L70.7891 45.6069C68.7247 46.6182 67.3799 46.9526 65.6034 46.9526C63.1754 46.9526 60.8546 45.383 60.7448 42.8399H72.5682V41.1975ZM60.6349 39.1425C60.6349 37.4219 61.8332 35.4775 63.9341 35.4775C66.1476 35.4775 67.1261 37.3464 67.236 39.1425H60.6349Z" fill="#AEAFB0"/>
<path d="M184.835 18.5897C184.537 18.8028 184.231 18.97 183.919 19.0725C182.886 19.4096 181.612 19.0995 180.468 18.614C179.652 18.2661 178.796 17.8157 177.899 17.2467C178.367 16.0682 178.807 14.7225 179.181 13.2338C179.762 10.9226 180.039 8.88645 180.097 7.09844C180.133 5.99272 180.081 4.9814 179.963 4.06177C179.801 2.79695 179.424 1.51055 178.624 0.75273C178.37 0.518103 178.061 0.321231 177.716 0.15942C179.351 -0.0239664 180.803 -0.0374493 182.085 0.0596375C183.433 0.178299 184.804 0.5208 185.604 1.32986C186.405 2.13891 186.758 3.54937 186.899 4.93286C187.03 6.25432 187.041 7.75108 186.889 9.4447C186.734 11.1141 186.42 12.9695 185.905 15.0272H185.908C185.583 16.3001 185.212 17.5164 184.835 18.5897ZM165.089 17.5434C165.058 17.1712 165.071 16.8125 165.141 16.4835C165.374 15.3913 166.272 14.4123 167.253 13.6302C167.954 13.0774 168.757 12.538 169.686 12.0202C170.442 13.0288 171.353 14.0914 172.418 15.1701C174.068 16.8449 175.641 18.1097 177.114 19.0536C178.024 19.6388 178.898 20.0973 179.73 20.4533C180.874 20.9387 182.143 21.2488 183.181 20.9117C183.506 20.8012 183.825 20.6259 184.134 20.3993C183.469 21.95 182.755 23.2553 182.033 24.3502C181.258 25.4937 180.288 26.5482 179.207 26.8556C178.127 27.1658 176.766 26.7774 175.534 26.2111C174.359 25.669 173.095 24.9274 171.748 23.9457C170.424 22.9748 169.019 21.7666 167.548 20.2753C166.641 19.3557 165.801 18.4171 165.089 17.5434ZM175.814 0.437198C176.143 0.596313 176.436 0.787789 176.677 1.01433C177.478 1.76945 177.852 3.06124 178.019 4.32607C178.134 5.22682 178.184 6.21656 178.155 7.3034C176.928 7.4733 175.581 7.75377 174.142 8.16639C171.91 8.80285 170.06 9.57415 168.53 10.4183C167.582 10.9388 166.758 11.4889 166.047 12.0553C165.065 12.832 164.171 13.8109 163.935 14.9058C163.865 15.251 163.851 15.6232 163.891 16.0115C162.92 14.6442 162.18 13.3524 161.622 12.1604C161.047 10.8983 160.649 9.50403 160.929 8.38484C161.209 7.26564 162.216 6.24353 163.307 5.42908C164.351 4.64969 165.604 3.89187 167.104 3.1826C168.582 2.48681 170.301 1.83687 172.287 1.27053C173.516 0.914541 174.725 0.636766 175.814 0.437198Z" fill="#AEAFB0"/>
</svg>
