<svg width="175" height="41" viewBox="0 0 175 41" fill="none" xmlns="http://www.w3.org/2000/svg">
<path d="M1.52344 30.5107V1.50684H40.1953L26.139 17.4278H13.2484L1.52344 30.5107Z" fill="#ABABAB"/>
<path d="M40.1953 11.7773V40.177H1.52344L15.5797 24.6183H28.4703L40.1953 11.7773Z" fill="#ABABAB"/>
<path d="M163.572 28.8479V15.4658H174.293V18.6497H166.557L167.428 17.804V28.8479H163.572Z" fill="#ABABAB"/>
<path d="M154.189 29.0496C153.062 29.0496 152.075 28.8009 151.229 28.3034C150.383 27.8059 149.72 27.0514 149.239 26.0399C148.775 25.0118 148.543 23.7183 148.543 22.1596C148.543 20.5842 148.767 19.2908 149.214 18.2793C149.662 17.2677 150.309 16.5132 151.155 16.0157C152 15.5183 153.012 15.2695 154.189 15.2695C155.449 15.2695 156.577 15.5597 157.572 16.1401C158.584 16.7039 159.38 17.4999 159.96 18.528C160.557 19.5561 160.855 20.7666 160.855 22.1596C160.855 23.5691 160.557 24.7879 159.96 25.816C159.38 26.8442 158.584 27.6401 157.572 28.2039C156.577 28.7677 155.449 29.0496 154.189 29.0496ZM146.279 33.6762V15.4685H149.985V18.2046L149.911 22.1845L150.16 26.1394V33.6762H146.279ZM153.518 25.8658C154.164 25.8658 154.736 25.7165 155.234 25.4181C155.748 25.1196 156.154 24.6967 156.453 24.1495C156.768 23.5857 156.925 22.9224 156.925 22.1596C156.925 21.3802 156.768 20.7169 156.453 20.1697C156.154 19.6225 155.748 19.1996 155.234 18.9011C154.736 18.6026 154.164 18.4534 153.518 18.4534C152.871 18.4534 152.29 18.6026 151.776 18.9011C151.262 19.1996 150.856 19.6225 150.558 20.1697C150.259 20.7169 150.11 21.3802 150.11 22.1596C150.11 22.9224 150.259 23.5857 150.558 24.1495C150.856 24.6967 151.262 25.1196 151.776 25.4181C152.29 25.7165 152.871 25.8658 153.518 25.8658Z" fill="#ABABAB"/>
<path d="M136.29 29.0496C134.864 29.0496 133.596 28.7512 132.485 28.1542C131.39 27.5572 130.52 26.7447 129.873 25.7165C129.243 24.6718 128.928 23.4862 128.928 22.1596C128.928 20.8164 129.243 19.6307 129.873 18.6026C130.52 17.5579 131.39 16.7454 132.485 16.165C133.596 15.568 134.864 15.2695 136.29 15.2695C137.7 15.2695 138.96 15.568 140.071 16.165C141.182 16.7454 142.053 17.5496 142.683 18.5778C143.313 19.6059 143.628 20.7998 143.628 22.1596C143.628 23.4862 143.313 24.6718 142.683 25.7165C142.053 26.7447 141.182 27.5572 140.071 28.1542C138.96 28.7512 137.7 29.0496 136.29 29.0496ZM136.29 25.8658C136.937 25.8658 137.517 25.7165 138.032 25.4181C138.546 25.1196 138.952 24.6967 139.25 24.1495C139.549 23.5857 139.698 22.9224 139.698 22.1596C139.698 21.3802 139.549 20.7169 139.25 20.1697C138.952 19.6225 138.546 19.1996 138.032 18.9011C137.517 18.6026 136.937 18.4534 136.29 18.4534C135.644 18.4534 135.063 18.6026 134.549 18.9011C134.035 19.1996 133.621 19.6225 133.306 20.1697C133.007 20.7169 132.858 21.3802 132.858 22.1596C132.858 22.9224 133.007 23.5857 133.306 24.1495C133.621 24.6967 134.035 25.1196 134.549 25.4181C135.063 25.7165 135.644 25.8658 136.29 25.8658Z" fill="#ABABAB"/>
<path d="M119.604 28.8384V13.7898L120.524 14.7101H114.057V11.4268H129.155V14.7101H122.688L123.583 13.7898V28.8384H119.604Z" fill="#ABABAB"/>
<path d="M106.301 23.3963V20.2871H113.34V23.3963H106.301Z" fill="#ABABAB"/>
<path d="M100.677 28.8384L95.2545 20.456L98.5129 18.4909L105.254 28.8384H100.677ZM89.3594 28.8384V11.4268H93.3641V28.8384H89.3594ZM92.195 21.824V18.4661H98.2642V21.824H92.195ZM98.8861 20.5803L95.1799 20.1326L100.826 11.4268H105.08L98.8861 20.5803Z" fill="#ABABAB"/>
<path d="M74.9416 21.5837V18.4994H83.5479V21.5837H74.9416ZM77.23 11.1367C78.54 11.1367 79.7422 11.3606 80.8367 11.8083C81.9311 12.2395 82.8846 12.8613 83.6972 13.6739C84.5097 14.4864 85.1398 15.4399 85.5876 16.5343C86.0353 17.6288 86.2592 18.831 86.2592 20.141C86.2592 21.4511 86.0353 22.6533 85.5876 23.7478C85.1398 24.8422 84.5097 25.7957 83.6972 26.6082C82.8846 27.4208 81.9311 28.0509 80.8367 28.4987C79.7422 28.9298 78.54 29.1454 77.23 29.1454C75.6878 29.1454 74.2948 28.8801 73.0512 28.3494C71.824 27.8188 70.7959 27.0477 69.9668 26.0361L72.5288 23.6483C73.1424 24.3447 73.8222 24.8671 74.5685 25.2153C75.3147 25.547 76.1355 25.7128 77.031 25.7128C77.7772 25.7128 78.4654 25.5801 79.0955 25.3148C79.7422 25.0329 80.2894 24.6515 80.7372 24.1706C81.2015 23.6731 81.5497 23.0845 81.7819 22.4046C82.0306 21.7247 82.155 20.9702 82.155 20.141C82.155 19.3119 82.0306 18.5574 81.7819 17.8775C81.5497 17.1976 81.2015 16.6173 80.7372 16.1364C80.2894 15.6389 79.7422 15.2575 79.0955 14.9922C78.4654 14.7103 77.7772 14.5693 77.031 14.5693C76.1355 14.5693 75.3147 14.7434 74.5685 15.0917C73.8222 15.4233 73.1424 15.9374 72.5288 16.6338L69.9668 14.2459C70.7959 13.2344 71.824 12.4633 73.0512 11.9327C74.2948 11.402 75.6878 11.1367 77.23 11.1367Z" fill="#ABABAB"/>
<path d="M58.5859 28.8384V13.7898L59.5063 14.7101H53.0391V11.4268H68.1375V14.7101H61.6703L62.5657 13.7898V28.8384H58.5859Z" fill="#ABABAB"/>
</svg>
