<svg width="227" height="28" viewBox="0 0 227 28" fill="none" xmlns="http://www.w3.org/2000/svg">
<g clip-path="url(#clip0_5889_38727)">
<path d="M15.0358 27.9268H0.0113863V22.0514L15.0358 11.5344V27.9268ZM17.0732 5.13535L27.5447 12.4723V0.393555H0V17.0774L17.0732 5.13535ZM19.1083 11.5344V27.9245H27.5515V17.4531L19.1083 11.5344Z" fill="#ABABAB"/>
<path d="M220.363 0H213.09V2.90927H220.363V0Z" fill="#ABABAB"/>
<path d="M48.0937 9.58829V24.7107H43.7344V5.63867H58.4469V9.58829H48.0937Z" fill="#ABABAB"/>
<path d="M60.2852 24.1097C61.3756 22.1496 61.9219 19.1014 61.9219 14.9288V5.63867H77.9957V24.7107H73.6318V9.58829H66.279V14.5213C66.279 19.3974 65.7622 22.7757 64.7265 24.7107H60.2852V24.1097Z" fill="#ABABAB"/>
<path d="M88.3182 5.63867H94.5738L102.086 24.7107H97.3055L95.835 20.7587H87.0616L85.591 24.7107H80.8242L88.3182 5.63867ZM94.3644 16.8091L91.4506 9.01691L88.5345 16.8091H94.3644Z" fill="#ABABAB"/>
<path d="M104.922 5.63867H114.729C118.435 5.63867 120.859 7.57363 120.859 10.5421C120.859 12.6136 119.826 14.0569 117.727 14.9014C120.124 15.5844 121.54 17.1369 121.54 19.3974C121.54 22.7757 119.006 24.7107 114.865 24.7107H104.922V5.63867ZM114.594 12.9938C115.928 12.9938 116.643 12.3405 116.643 11.225C116.643 10.2439 115.908 9.58829 114.594 9.58829H109.281V13.0029L114.594 12.9938ZM115.138 20.7587C116.472 20.7587 117.317 20.0234 117.317 18.8533C117.317 17.6832 116.472 16.9457 115.138 16.9457H109.281V20.7587H115.138Z" fill="#ABABAB"/>
<path d="M134.248 21.0325C137.49 21.0325 139.423 18.9609 140.051 15.774L144.055 17.3811C142.937 22.0683 139.45 24.9821 134.221 24.9821C128.145 24.9821 124.221 20.7866 124.221 15.1753C124.114 9.69818 128.635 5.25916 134.221 5.36615C139.261 5.36615 142.448 8.14566 143.265 11.7151L139.261 13.5089C138.715 10.866 136.782 9.31347 134.139 9.31347C131.086 9.31347 128.58 11.6286 128.58 15.1707C128.58 18.772 131.196 21.0325 134.248 21.0325Z" fill="#ABABAB"/>
<path d="M162.736 9.58829H156.198V24.7107H151.839V9.58829H145.301V5.63867H162.736V9.58829Z" fill="#ABABAB"/>
<path d="M170.137 24.7107H165.777V5.63867H174.904C179.154 5.63867 181.307 8.39089 181.307 11.6052C181.307 14.7102 179.099 17.6263 174.904 17.6263H170.137V24.7107ZM174.633 13.6767C176.049 13.6767 176.948 12.9414 176.948 11.6279C176.948 10.3144 176.049 9.57916 174.633 9.57916H170.137V13.6767H174.633Z" fill="#ABABAB"/>
<path d="M204.189 15.1752C204.298 20.4884 199.584 25.1187 194.109 24.9821C188.632 25.1187 183.92 20.4884 184.029 15.1752C183.92 9.86202 188.632 5.25909 194.109 5.36609C199.584 5.25909 204.296 9.86657 204.189 15.1752ZM199.83 15.1752C199.83 11.6877 197.296 9.45454 194.109 9.45454C190.922 9.45454 188.389 11.6877 188.389 15.1752C188.389 18.6627 190.922 20.8958 194.109 20.8958C197.296 20.8958 199.83 18.6627 199.83 15.1752Z" fill="#ABABAB"/>
<path d="M214.902 24.7107H207.438V5.63867H211.808V21.8013L218.783 5.63867H226.248V24.7107H221.888V8.54796L214.902 24.7107Z" fill="#ABABAB"/>
</g>
<defs>
<clipPath id="clip0_5889_38727">
<rect width="226.276" height="28" fill="white"/>
</clipPath>
</defs>
</svg>
