<svg width="160" height="35" viewBox="0 0 160 35" fill="none" xmlns="http://www.w3.org/2000/svg">
<path d="M58.0003 35L50.6237 21.6736H45.9952C48.7434 21.3808 51.0576 20.3556 52.9379 18.7448C55.3968 16.6946 56.6985 14.0586 56.6985 10.9833C56.6985 7.90795 55.3968 5.27197 52.9379 3.22176C50.479 1.0251 47.297 0 43.681 0H27.4814L17.9352 25.1883L8.09979 0H0V35H2.02495V3.80753L14.1746 35H16.4889L28.06 3.95398V35H35.5812V21.8201H42.3792L49.6112 35H58.0003ZM35.5812 1.75732H41.2221C45.272 1.75732 48.0202 5.41841 48.0202 10.9833C48.0202 16.5481 45.272 20.2092 41.2221 20.2092H35.5812V1.75732Z" fill="#ABABAB"/>
<path d="M100.524 26.3598L96.9082 19.6234H94.594C95.8957 19.477 97.0528 18.8912 98.0653 18.159C99.3671 17.1339 99.9456 15.8159 99.9456 14.205C99.9456 12.5941 99.3671 11.4226 98.0653 10.3975C96.7635 9.37239 95.3171 8.78661 93.4368 8.78661H85.6263V26.3598H89.3869V19.7699H92.8583L96.4743 26.3598H100.524ZM89.3869 18.8912V9.66527H92.1351C94.16 9.66527 95.4618 11.4226 95.4618 14.205C95.4618 16.9874 94.16 18.7448 92.1351 18.7448H89.3869V18.8912Z" fill="#ABABAB"/>
<path d="M111.806 26.3598C109.203 26.3598 107.033 25.4812 105.297 23.8703C103.562 22.113 102.694 20.0628 102.694 17.5732C102.694 15.0837 103.562 12.887 105.297 11.2762C107.033 9.51883 109.203 8.78661 111.806 8.78661C114.41 8.78661 116.579 9.66527 118.315 11.2762C120.05 13.0335 120.918 15.0837 120.918 17.5732C120.918 20.0628 120.05 22.2594 118.315 23.8703C116.579 25.6276 114.41 26.3598 111.806 26.3598ZM111.806 25.7741C113.397 25.7741 114.554 25.0418 115.567 23.5774C116.579 22.113 117.013 20.0628 117.013 17.5732C117.013 15.0837 116.579 13.1799 115.567 11.569C114.699 10.1046 113.397 9.37239 111.806 9.37239C110.215 9.37239 109.058 10.1046 108.045 11.569C107.178 13.0335 106.599 15.0837 106.599 17.5732C106.599 20.0628 107.033 21.9665 108.045 23.5774C108.913 25.0418 110.215 25.7741 111.806 25.7741Z" fill="#ABABAB"/>
<path d="M137.118 8.78661C137.118 8.78661 137.118 20.9414 137.118 23.1381C136.25 24.4561 134.804 25.1883 132.923 25.1883C129.741 25.1883 127.716 23.1381 127.716 19.6234V8.78661H123.956V19.1841C123.956 21.2343 124.679 22.9916 126.125 24.3096C127.572 25.6276 129.452 26.2134 131.766 26.2134C133.936 26.2134 135.527 25.6276 136.829 24.4561C137.118 24.1632 137.407 23.8703 137.552 23.5774L140.3 26.3598H140.878V8.78661H137.118Z" fill="#ABABAB"/>
<path d="M152.45 8.78661C154.33 8.78661 155.776 9.37239 157.078 10.3975C158.38 11.4226 158.958 12.7406 158.958 14.205C158.958 15.8159 158.38 16.9874 157.078 18.159C155.776 19.1841 154.33 19.7699 152.45 19.7699H148.4V26.3598H144.639V8.78661H152.45ZM151.292 18.8912C153.317 18.8912 154.619 17.1339 154.619 14.3515C154.619 11.569 153.317 9.81172 151.292 9.81172H148.544V18.8912H151.292Z" fill="#ABABAB"/>
<path d="M78.1051 18.8911C78.1051 18.8911 78.1051 21.3806 78.1051 23.2844C77.6712 24.8953 76.2248 25.9204 74.1998 25.9204C72.4642 25.9204 71.3071 25.1881 70.2946 23.7237C69.2821 22.2593 68.8482 20.3555 68.8482 17.866C68.8482 12.594 71.3071 9.51868 75.357 9.51868C76.8033 9.51868 77.9605 9.81157 78.8283 10.5438C79.8408 11.276 80.2747 12.1547 80.2747 13.3262H80.9979C80.9979 12.0082 80.2747 10.6902 79.1176 9.81157C77.9605 8.93291 76.3694 8.64002 74.4891 8.64002C71.741 8.64002 69.5714 9.51868 67.6911 11.1296C65.9554 12.8869 65.0876 15.0835 65.0876 17.5731C65.0876 20.0626 65.9554 22.2593 67.6911 24.0166C69.4268 25.7739 71.741 26.5061 74.1998 26.5061C76.5141 26.5061 78.3944 25.7739 79.2622 24.4559L81.2872 26.3597H81.8657V18.8911H78.1051Z" fill="#ABABAB"/>
</svg>
