<svg width="70" height="70" viewBox="0 0 70 70" fill="none" xmlns="http://www.w3.org/2000/svg">
<path fill-rule="evenodd" clip-rule="evenodd" d="M4.92061 4.92061C0 9.84121 0 17.7608 0 33.6V36.4C0 52.2392 0 60.1588 4.92061 65.0794C9.84121 70 17.7608 70 33.6 70H36.4C52.2392 70 60.1588 70 65.0794 65.0794C70 60.1588 70 52.2392 70 36.4V33.6C70 17.7608 70 9.84121 65.0794 4.92061C60.1588 0 52.2392 0 36.4 0H33.6C17.7608 0 9.84121 0 4.92061 4.92061ZM11.8117 21.2919C12.1908 39.4919 21.2908 50.4293 37.2449 50.4293H38.1493V40.0168C44.0118 40.6002 48.4448 44.8877 50.2239 50.4293H58.5075C56.2325 42.146 50.2531 37.5668 46.5197 35.8168C50.2531 33.6585 55.5031 28.4085 56.7572 21.2919H49.232C47.5987 27.0669 42.7576 32.3168 38.1493 32.8127V21.2919H30.624V41.4752C25.9574 40.3085 20.0658 34.6502 19.8033 21.2919H11.8117Z" fill="#B5B5B5"/>
</svg>
