<svg width="144" height="28" viewBox="0 0 144 28" fill="none" xmlns="http://www.w3.org/2000/svg">
<path d="M32.1051 28H41.5225C44.5687 28 45.1007 26.14 45.2717 24.4684C45.43 22.9203 47.5833 0 47.5833 0H38.2166C35.544 0 34.613 1.42443 34.4167 3.75531C34.2837 4.92075 32.1051 28 32.1051 28Z" fill="#B5B5B5"/>
<path d="M97.1942 21.4312H93.9137L95.934 0H83.0903C83.0903 0 80.899 23.7091 80.766 24.8863C80.771 25.7091 81.1249 26.4969 81.751 27.0787C82.377 27.6606 83.2246 27.9895 84.1099 27.9941H106.358C107.189 27.9922 107.989 27.704 108.605 27.1854C109.22 26.6668 109.606 25.9546 109.69 25.1865C109.823 23.8091 112.052 0 112.052 0H99.2082L97.1942 21.4312Z" fill="#B5B5B5"/>
<path d="M5.84977 0C3.55717 0 2.30321 1.10658 2.04988 3.70822C1.94855 5.00904 1.14424 13.4202 1.04291 14.6328C0.941582 15.8453 1.4229 16.9107 3.05052 16.9107H16.9835L16.4895 22.1728H13.1709L13.3989 19.7477H0.55526C0.55526 19.7477 0.19427 23.9386 0.029608 25.3866C-0.135054 26.8346 0.352599 28 2.36654 28H25.1659C28.7821 28 28.9658 25.5337 29.1748 23.6679C29.3711 21.9374 30.1057 13.791 30.2071 12.761C30.2357 12.5422 30.2119 12.3202 30.1373 12.1109C30.0628 11.9017 29.9394 11.7103 29.776 11.5506C29.6126 11.3908 29.4132 11.2666 29.1921 11.1869C28.971 11.1072 28.7337 11.0738 28.4971 11.0893H14.2159L14.7099 5.82132H18.0348L17.8068 8.24049H30.6504C30.6504 8.24049 31.0304 3.53164 31.2014 2.2367C31.3724 0.94177 30.6124 0 29.1304 0H5.84977Z" fill="#B5B5B5"/>
<path d="M50.8481 0L48.2135 27.9941H73.9071C76.0731 27.9941 77.2954 26.7463 77.4917 24.5861C77.574 23.7091 77.859 20.7425 78.087 18.2998C78.1622 17.8871 78.1133 17.4632 77.9456 17.0747C77.778 16.6863 77.4982 16.3484 77.137 16.0984L74.0971 14.0206C74.0971 14.0206 77.004 12.2548 77.764 11.8016C78.524 11.3483 78.79 10.7774 78.885 9.70023C79.094 7.25751 79.3726 4.47341 79.436 3.70233C79.607 1.68341 78.3847 0 75.7691 0H50.8481ZM66.4213 5.82132L65.9274 11.1188H62.6468L63.1408 5.85075L66.4213 5.82132ZM62.0958 16.9107H65.3764L64.8824 22.2081H61.6018L62.0958 16.9107Z" fill="#B5B5B5"/>
<path d="M140.707 0H115.336L112.733 28H125.577L126.394 19.3357H129.656L128.839 27.9941H141.682C141.682 27.9941 142.246 21.8373 142.347 20.9308C142.437 20.4675 142.389 19.99 142.208 19.5502C142.027 19.1103 141.721 18.7248 141.321 18.4351L138.389 16.428C138.389 16.428 140.998 14.8623 141.822 14.3443C142.645 13.8264 143.088 13.2672 143.221 11.6779C143.354 10.0887 143.912 4.40866 143.994 3.34328C144.021 2.9217 143.957 2.4993 143.806 2.10114C143.654 1.70298 143.418 1.33716 143.111 1.02537C142.805 0.713579 142.434 0.462163 142.021 0.28603C141.608 0.109896 141.161 0.0126307 140.707 0ZM126.907 13.5379L127.54 6.59239H130.808L130.175 13.5379H126.907Z" fill="#B5B5B5"/>
</svg>
