<svg width="205" height="40" viewBox="0 0 205 40" fill="none" xmlns="http://www.w3.org/2000/svg">
<g clip-path="url(#clip0_5889_38689)">
<path d="M20.5 0C9.1636 0 0 8.94009 0 20C0 31.0599 9.1636 40 20.5 40C31.8364 40 41 31.0599 41 20C41 8.94009 31.7419 0 20.5 0ZM17.5714 28.4793L16.0599 32.8111C10.3917 30.9677 6.6129 25.7143 6.6129 19.8157C6.6129 13.917 10.3917 8.75576 16.1544 6.82028L17.6659 11.1521C13.8871 12.3502 11.4309 15.8525 11.4309 19.7235C11.3364 23.7788 13.7926 27.2811 17.5714 28.4793ZM24.6567 32.9032L23.2396 28.4793C27.1129 27.2811 29.6636 23.7788 29.6636 19.8157C29.6636 15.8525 27.1129 12.4424 23.3341 11.2442L24.8456 6.82028C30.6083 8.66359 34.4816 13.917 34.4816 19.8157C34.3871 25.8986 30.4194 31.1521 24.6567 32.9032Z" fill="#ABABAB"/>
<path d="M202.116 23.5906L204.313 26.2174C202.025 28.5725 199.187 29.2065 196.899 29.2065C194.703 29.2065 193.147 28.8442 191.774 28.2101C188.845 26.7609 187.381 23.8623 187.381 20.3297C187.381 14.9855 191.042 11 196.442 11C202.482 11 205.411 15.4384 204.954 21.2355H191.225C191.316 22.6848 192.14 24.0435 193.33 24.7681C194.337 25.4022 195.526 25.6739 197.082 25.6739C198.821 25.7645 200.56 25.1304 202.116 23.5906ZM191.408 18.1558H201.109C200.835 16.0725 199.096 14.2609 196.35 14.2609C193.421 14.2609 191.682 16.2536 191.408 18.1558ZM99.1495 28.7536H104.092L96.3122 19.7862L104 11.3623H99.1495L93.2918 18.0652H91.5528V11.3623H87.8002V28.663H91.5528V21.779H93.2918L99.1495 28.7536ZM115.35 14.5326C112.146 14.5326 110.041 16.9783 110.041 20.058C110.041 23.1377 112.146 25.5833 115.35 25.5833C118.553 25.5833 120.567 23.2283 120.567 20.058C120.567 17.0688 118.645 14.5326 115.35 14.5326ZM115.99 11C120.933 11 124.594 14.8043 124.594 20.058C124.594 25.221 121.024 29.2065 115.99 29.2065C113.611 29.2065 111.689 28.3913 110.316 26.942V36H106.472V11.4529H110.224V13.5362C111.689 11.8152 113.519 11 115.99 11ZM165.78 11.4529H150.129V14.8949H156.079V28.7536H159.923V14.8949H165.872V11.4529H165.78ZM85.146 11.4529H69.495V14.8949H75.4442V28.7536H79.1968V14.8949H85.146V11.4529ZM64.8272 20.1486C64.8272 16.8877 62.5391 14.5326 59.3357 14.5326C56.2238 14.5326 53.8441 16.8877 53.8441 20.1486C53.8441 23.4094 56.1322 25.7645 59.3357 25.7645C62.4475 25.7645 64.8272 23.4094 64.8272 20.1486ZM50 20.1486C50 14.9855 54.0271 11.0906 59.4272 11.0906C64.8272 11.0906 68.8544 14.9855 68.8544 20.1486C68.8544 25.3116 64.8272 29.2971 59.4272 29.2971C54.0271 29.2971 50 25.3116 50 20.1486ZM184.36 11.4529V28.7536H180.608V17.6123L171.455 28.7536H168.435V11.4529H172.187V22.5942L181.34 11.4529H184.36ZM147.567 28.7536H143.814V11.4529H147.567V28.7536ZM137.773 22.8659C137.773 21.3261 136.675 20.2391 135.211 20.2391H131.367V25.5833H135.211C136.675 25.5833 137.773 24.4058 137.773 22.8659ZM141.618 22.8659C141.618 26.308 139.055 28.7536 135.394 28.7536H127.706V11.4529H131.458V17.0688H135.76C139.329 17.0688 141.618 19.3333 141.618 22.8659Z" fill="#ABABAB"/>
</g>
<defs>
<clipPath id="clip0_5889_38689">
<rect width="205" height="40" fill="white"/>
</clipPath>
</defs>
</svg>
