<svg width="143" height="64" viewBox="0 0 143 64" fill="none" xmlns="http://www.w3.org/2000/svg">
<path d="M38 31.5109C38 35.1159 35.0772 38.0217 31.5 37.9999C27.9228 37.9999 25 35.0722 25 31.4891C25 27.8841 27.9228 24.9783 31.5 25.0001C35.099 25.022 38 27.9278 38 31.5109Z" fill="#ABABAB"/>
<path d="M31.8365 0C26.8867 0 22.1901 1.12191 18 3.10866C23.5944 2.52433 29.3961 4.97857 33.6783 9.34942C35.8194 11.4998 37.7072 14.2812 39.2957 17.647C48.3896 19.3066 54.5596 14.7253 57 11.9906C51.0142 4.67469 41.9664 0 31.8365 0Z" fill="#ABABAB"/>
<path d="M13.1511 6.09537C8.73264 9.40666 5.22054 13.8217 3 18.9125C5.67372 19.5658 13.6722 22.1562 17.3429 32C18.4532 31.6396 20.8323 30.2655 22.4864 24.9494C24.503 18.4395 28.1964 12.1548 33 9.36161C27.6979 4.27079 19.6994 2.04074 13.1511 6.09537Z" fill="#ABABAB"/>
<path d="M59.8788 48.3286C62.2624 44.098 63.6213 39.549 64 35C61.7723 40.0494 56.9605 43.8251 51.2353 45.349C48.4285 46.1451 45.1983 46.3726 41.6563 46.1224C35.8865 53.0824 36.6885 60.5882 37.7578 64C46.7577 62.4306 54.9778 56.9718 59.8788 48.3286Z" fill="#ABABAB"/>
<path d="M63.9924 28.3629C63.3063 22.8304 61.2025 17.5265 57.841 13C55.9201 14.9889 49.6087 20.6586 39.0896 18.8754C38.8381 20.0185 38.861 22.7847 42.7027 26.9226C47.4134 31.9978 51.0951 38.399 51.118 44C58.2526 41.9882 64.2439 36.1129 63.9924 28.3629Z" fill="#ABABAB"/>
<path d="M4.45523 48.5988C6.9609 52.8695 10.333 56.3595 14.1969 59C10.8482 54.4767 10.0286 48.2544 11.6444 42.3994C12.4171 39.5063 13.8924 36.4985 16 33.4906C12.8152 24.8344 5.69633 21.7577 2.09005 21C-1.23522 29.771 -0.696598 39.8507 4.45523 48.5988Z" fill="#ABABAB"/>
<path d="M19.6379 61.4985C24.7003 63.6158 30.2577 64.4181 35.7926 63.794C35.0276 61.1864 33.2951 53.1185 40 45.1173C39.145 44.3595 36.7601 43.0223 31.3377 44.2258C24.7003 45.7191 17.4105 45.6968 12.6181 43C10.8181 50.0205 12.8881 57.9325 19.6379 61.4985Z" fill="#ABABAB"/>
<path d="M72.4922 27H75.5216C77.8157 27 79.051 27.9593 79.051 29.6163C79.051 31.157 78.1098 32 76.9039 32.2616C77.8451 32.6105 78.3451 34.8198 79.4922 37H77.9922C76.1392 33.3372 76.5805 32.5523 74.8158 32.5523H73.8157V37H72.5216V27H72.4922ZM73.7863 31.3605H75.5804C76.8157 31.3605 77.6099 30.9244 77.6099 29.7326C77.6099 28.7442 76.9628 28.1919 75.404 28.1919H73.7569V31.3605H73.7863Z" fill="#ABABAB"/>
<path d="M82 32C82 28.8926 83.8231 27 86.4566 27C89.4084 27 91 29.0621 91 32C91 35.3051 89.0901 37 86.4856 37C83.7363 37 82 35.0791 82 32ZM89.6399 32C89.6399 29.3446 88.4244 28.1582 86.4566 28.1582C84.7202 28.1582 83.3601 29.4011 83.3601 32C83.3601 34.5424 84.6624 35.8418 86.6302 35.8418C88.4823 35.8418 89.6399 34.5141 89.6399 32Z" fill="#ABABAB"/>
<path d="M94.3204 35.1127C94.7864 35.4225 95.6019 35.8169 96.6213 35.8169C97.9611 35.8169 98.6019 35.2254 98.6019 34.2113C98.6019 33.0845 98.0486 32.7747 96.6797 32.2676L96.3301 32.1549C94.8738 31.6197 94.1748 30.9718 94.1748 29.4789C94.1748 27.9014 95.3981 27 97.3787 27C98.6019 27 99.534 27.3662 99.7379 27.5352L99.4175 28.6056C98.6893 28.2676 97.9029 28.1831 97.2913 28.1831C96.1845 28.1831 95.5437 28.6338 95.5437 29.5071C95.5437 30.2676 95.8641 30.7183 97.4369 31.2817L97.8155 31.4225C99.5631 32.0704 100 32.8874 100 34.155C100 35.986 98.6893 37 96.767 37C95.7184 37 94.699 36.7184 94 36.2676L94.3204 35.1127Z" fill="#ABABAB"/>
<path d="M108.661 34.3256H104.309L103.332 37H102L105.878 27H107.181L111 37H109.638L108.661 34.3256ZM104.753 33.1628H108.276L106.559 28.4535H106.5L104.753 33.1628Z" fill="#ABABAB"/>
<path d="M116.121 37H114.879V28.1919H112V27H119V28.1919H116.121V37Z" fill="#ABABAB"/>
<path d="M121 32C121 28.8926 122.823 27 125.457 27C128.408 27 130 29.0621 130 32C130 35.3051 128.09 37 125.486 37C122.736 37 121 35.0791 121 32ZM128.64 32C128.64 29.3446 127.424 28.1582 125.457 28.1582C123.72 28.1582 122.36 29.4011 122.36 32C122.36 34.5424 123.662 35.8418 125.63 35.8418C127.511 35.8418 128.64 34.5141 128.64 32Z" fill="#ABABAB"/>
<path d="M143 37H141.746L141.148 29.1802L138.67 37H137.331L134.88 29.2093L134.254 37H133L133.826 27H135.393L138.014 35.6046L140.607 27H142.174L143 37Z" fill="#ABABAB"/>
</svg>
