<svg width="206" height="26" viewBox="0 0 206 26" fill="none" xmlns="http://www.w3.org/2000/svg">
<g clip-path="url(#clip0_7564_62071)">
<path d="M107.874 4.38867V16.211C107.759 17.8857 107.277 19.5222 105.113 19.5222V23.8581C112.47 23.8581 112.707 21.044 112.707 16.211V8.72455H121.684V23.8581H126.686V4.38867H107.874Z" fill="#B5B5B5"/>
<path d="M80.4521 10.5981C80.4521 4.46514 74.9921 4.46514 70.4498 4.38867H60.0039V23.8581H65.0051V16.8151H70.4421C74.9845 16.7387 80.4445 16.731 80.4445 10.6057L80.4521 10.5981ZM70.2663 13.0757H65.0127V8.12808H70.2663C73.9216 8.12808 75.4127 8.12808 75.4127 10.6057C75.4127 13.0834 73.9216 13.0834 70.2663 13.0834V13.0757Z" fill="#B5B5B5"/>
<path d="M46.8774 13.5498L41.3562 4.38867H35.0703L43.9485 18.5204L40.9127 23.8581H46.908L58.2409 4.38867H52.2456L46.8774 13.5498Z" fill="#B5B5B5"/>
<path d="M87.6115 4.38867L78.6797 23.8581H84.1091L85.7609 20.1187H96.0767L97.7973 23.8581H103.563L94.2567 4.38867H87.6115ZM87.4126 16.3793L90.8156 8.67102L94.3638 16.3793H87.4126Z" fill="#B5B5B5"/>
<path d="M197.913 4.38867L191.917 19.8816L185.93 4.38867H177.992V23.8581H182.993V9.75691L188.69 23.8581H195.045L200.834 9.51985V23.8581H205.843V4.38867H197.913Z" fill="#B5B5B5"/>
<path d="M158.657 17.8551V4.38867H153.656V23.8581H159.162L169.516 10.5981V23.8581H174.517V4.38867H168.943L158.657 17.8551Z" fill="#B5B5B5"/>
<path d="M145.505 4.38867L140.405 10.3916L135.48 4.38867H128.965L137.14 14.2381L128.965 23.8581H134.578L139.9 17.7175L144.94 23.8581H151.455L143.204 13.9093L151.455 4.38867H145.505Z" fill="#B5B5B5"/>
<path d="M22.0094 19.4453C19.96 19.4453 18.293 21.1124 18.293 23.1618C18.293 25.2112 19.96 26.8783 22.0094 26.8783C24.0589 26.8783 25.7259 25.2112 25.7259 23.1618C25.7259 21.1124 24.0589 19.4453 22.0094 19.4453Z" fill="#B5B5B5"/>
<path d="M16.2972 6.27808C17.0827 4.38177 16.1822 2.20775 14.2858 1.42228C12.3895 0.636801 10.2155 1.53731 9.43004 3.43362C8.64457 5.32993 9.54507 7.50394 11.4414 8.28942C13.3377 9.0749 15.5117 8.17439 16.2972 6.27808Z" fill="#B5B5B5" fill-opacity="0.8"/>
<path d="M7.14094 15.4207C7.92641 13.5243 7.0259 11.3503 5.1296 10.5649C3.23329 9.77938 1.05927 10.6799 0.273794 12.5762C-0.511683 14.4725 0.388824 16.6465 2.28513 17.432C4.18144 18.2175 6.35546 17.317 7.14094 15.4207Z" fill="#B5B5B5" fill-opacity="0.8"/>
<path d="M22.0094 10.292C19.96 10.292 18.293 11.9591 18.293 14.0085C18.293 16.0579 19.96 17.7249 22.0094 17.7249C24.0589 17.7249 25.7259 16.0579 25.7259 14.0085C25.7259 11.9591 24.0589 10.292 22.0094 10.292Z" fill="#B5B5B5" fill-opacity="0.8"/>
<path d="M12.861 19.4453C10.8116 19.4453 9.14453 21.1124 9.14453 23.1618C9.14453 25.2112 10.8116 26.8783 12.861 26.8783C14.9104 26.8783 16.5698 25.2112 16.5698 23.1618C16.5698 21.1124 14.9028 19.4453 12.861 19.4453Z" fill="#B5B5B5" fill-opacity="0.8"/>
<path d="M7.43634 23.0016C7.5587 21.9081 7.69634 20.6616 9.03458 19.331C10.1893 18.1763 11.3975 17.9928 12.5752 17.8093C13.6305 17.6487 14.6246 17.4957 15.4887 16.6316C16.3528 15.7675 16.5058 14.7657 16.6663 13.7181C16.8422 12.5481 17.0334 11.3322 18.1881 10.1775C19.5263 8.83926 20.7652 8.70161 21.8587 8.57926C22.8299 8.4722 23.7475 8.37279 24.6422 7.47808C25.4605 6.65985 25.8428 5.52808 25.6975 4.37338C25.5981 3.57044 25.2234 2.81338 24.6422 2.2322C24.061 1.65102 23.2963 1.27632 22.501 1.17691C21.3463 1.03161 20.2069 1.41397 19.3887 2.2322C18.494 3.12691 18.3946 4.04455 18.2875 5.01573C18.1652 6.10926 18.0275 7.35573 16.6893 8.68632C15.5346 9.84102 13.944 10.4069 12.3152 10.254C11.084 10.1316 9.92164 9.57338 9.03458 8.68632C7.69634 7.34808 7.5587 6.10926 7.43634 5.01573C7.32928 4.04455 7.22223 3.12691 6.33517 2.2322C5.63164 1.52102 4.69105 1.13867 3.70458 1.13867C3.54399 1.13867 3.3834 1.14632 3.22281 1.16926C2.42752 1.26867 1.66281 1.64338 1.08164 2.22455C0.500462 2.80573 0.125756 3.57044 0.026344 4.36573C-0.11895 5.52044 0.263403 6.65985 1.08164 7.47044C1.97634 8.36514 2.89399 8.46455 3.86517 8.57161C4.9587 8.69397 6.19752 8.83161 7.53576 10.1698C8.42281 11.0569 8.98105 12.2193 9.1034 13.4504C9.26399 15.0793 8.69046 16.6698 7.53576 17.8246C6.19752 19.1628 4.9587 19.3004 3.86517 19.4228C2.89399 19.5298 1.97634 19.6293 1.08164 20.524C0.263403 21.3498 -0.11895 22.4816 0.026344 23.644C0.125756 24.4469 0.500462 25.204 1.08164 25.7851C1.66281 26.3663 2.41987 26.741 3.22281 26.8404C4.38517 26.9857 5.51693 26.6034 6.32752 25.7851C7.22223 24.8904 7.32164 23.9728 7.4287 23.0016H7.43634Z" fill="#B5B5B5"/>
</g>
<defs>
<clipPath id="clip0_7564_62071">
<rect width="205.706" height="26" fill="white"/>
</clipPath>
</defs>
</svg>
