<svg width="73" height="24" viewBox="0 0 73 24" fill="none" xmlns="http://www.w3.org/2000/svg">
<path d="M62.8819 23.1906H57.3822L60.4157 16.7537L53.4609 4.5459H59.1826L62.9066 11.328H63.1286L66.236 4.5459H71.785L62.8819 23.1906Z" fill="#0E0E0E"/>
<path d="M52.154 18.5049H46.8516V0.748047H52.154V18.5049Z" fill="#0E0E0E"/>
<path d="M27.6875 18.5043V4.54547H32.9899V6.71575H33.2119C33.6229 6.07453 34.3134 5.49908 35.2835 4.98939C36.27 4.46326 37.4127 4.2002 38.7116 4.2002C40.4708 4.2002 41.8355 4.66878 42.8055 5.60595C43.7756 6.54312 44.2606 7.85022 44.2606 9.52726V18.5043H38.9582V10.7357C38.9582 9.84787 38.7116 9.16554 38.2183 8.68874C37.7415 8.21193 37.0674 7.97353 36.196 7.97353C35.489 7.97353 34.8396 8.16261 34.2477 8.54076C33.6722 8.91892 33.253 9.3464 32.9899 9.8232V18.5043H27.6875Z" fill="#0E0E0E"/>
<path d="M12.929 18.9483C10.2655 18.9483 8.01302 18.5537 6.17157 17.7645C4.34656 16.9754 2.97369 15.8984 2.05296 14.5338C1.13224 13.1527 0.671875 11.599 0.671875 9.87261C0.671875 8.14625 1.13224 6.60074 2.05296 5.23609C2.97369 3.855 4.34656 2.76986 6.17157 1.98067C8.01302 1.19147 10.2655 0.796875 12.929 0.796875C15.5761 0.796875 17.8204 1.19147 19.6619 1.98067C21.5033 2.76986 22.8762 3.855 23.7805 5.23609C24.7012 6.60074 25.1616 8.14625 25.1616 9.87261C25.1616 11.599 24.7012 13.1527 23.7805 14.5338C22.8762 15.8984 21.5033 16.9754 19.6619 17.7645C17.8204 18.5537 15.5761 18.9483 12.929 18.9483ZM12.929 14.8791C14.3759 14.8791 15.6008 14.6571 16.6037 14.2132C17.6231 13.7693 18.3794 13.1691 18.8727 12.4128C19.3824 11.6565 19.6372 10.8098 19.6372 9.87261C19.6372 8.93544 19.3824 8.0887 18.8727 7.33239C18.3794 6.57608 17.6231 5.97596 16.6037 5.53204C15.6008 5.08812 14.3759 4.86616 12.929 4.86616C11.4822 4.86616 10.2491 5.08812 9.2297 5.53204C8.22677 5.97596 7.47045 6.57608 6.96077 7.33239C6.45108 8.0887 6.19623 8.93544 6.19623 9.87261C6.19623 10.8098 6.45108 11.6565 6.96077 12.4128C7.47045 13.1691 8.22677 13.7693 9.2297 14.2132C10.2491 14.6571 11.4822 14.8791 12.929 14.8791Z" fill="#0E0E0E"/>
</svg>
