<svg width="23" height="29" viewBox="0 0 23 29" fill="none" xmlns="http://www.w3.org/2000/svg">
<path fill-rule="evenodd" clip-rule="evenodd" d="M7.9471 0L8.21395 0.0325934C8.36406 0.0488901 8.95613 0.0896319 9.53152 0.105929C10.4822 0.14667 10.6323 0.179264 11.7831 0.684462L11.683 1.33633L12.2334 1.60523C12.7754 1.85783 12.7837 1.87412 12.7837 2.19191C12.7837 2.37117 12.7337 2.94971 12.667 3.47935C12.6003 4.00084 12.4835 4.96235 12.4085 5.61422C12.3334 6.26609 12.2667 6.86906 12.2584 6.96685C12.2417 7.12166 12.2917 7.14611 12.8838 7.195C13.3842 7.23574 13.651 7.30093 14.0513 7.50464C14.5683 7.77353 14.5766 7.77353 14.5266 8.4254L15.7358 8.48244C16.8782 8.54763 16.9866 8.56392 18.054 9.07727L17.9956 9.75358L18.6211 9.78618C19.1214 9.81877 19.3549 9.88396 20.3556 10.381L20.2722 11.0329L20.8226 11.2936C21.373 11.5625 21.373 11.5625 21.373 11.9047C21.373 12.2551 21.373 12.2551 22.457 12.7848L22.407 13.3307C22.382 13.6403 22.3153 14.3248 22.2486 14.8626C22.1818 15.4004 22.0734 16.313 22.0067 16.8997C21.94 17.4864 21.7982 18.6679 21.498 21.0961H20.8893C20.464 21.0961 20.2889 21.1287 20.2889 21.1939C20.2889 21.2509 20.2138 21.9028 20.1221 22.6443C20.0304 23.3858 19.947 24.1028 19.9136 24.4777L18.7462 24.4206L18.6378 25.1051C18.5877 25.4718 18.4793 26.2785 18.4126 26.8814C18.3375 27.4844 18.2542 28.2096 18.1624 29H17.8038C17.6121 29 16.8282 28.9674 16.0527 28.9185C15.2855 28.8778 13.5676 28.78 12.2417 28.7148C10.9158 28.6496 9.14793 28.5518 8.32236 28.5111C7.4968 28.4622 6.58784 28.4133 6.29597 28.3889C5.94573 28.3644 5.61217 28.2666 5.26193 28.0955C4.97007 27.957 4.72824 27.8348 4.71156 27.8266C4.70322 27.8266 4.76159 27.1585 4.85332 26.3518C4.94505 25.5451 5.01176 24.8769 5.00342 24.8769C4.99508 24.8688 4.75325 24.7466 4.46973 24.608C4.17786 24.4695 3.92769 24.331 3.91935 24.2903C3.90267 24.2577 3.92769 23.8665 3.98606 23.4184C4.0361 22.9702 4.06945 22.5791 4.05277 22.5384C4.03609 22.5058 3.79426 22.3672 3.51074 22.2287C3.21887 22.0902 2.97704 21.968 2.9687 21.9598C2.96036 21.9598 2.99372 21.5524 3.05209 21.0635C3.15216 20.2079 3.14382 20.1753 2.98538 20.0776C2.89365 20.0124 2.63514 19.882 2.41832 19.7761C2.01805 19.5886 2.00971 19.5886 2.05974 19.2627C2.08476 19.0835 2.12646 18.676 2.20985 17.796L1.65947 17.5271C1.11743 17.2745 1.10909 17.2582 1.09241 16.916C1.0674 16.5819 1.05072 16.5656 0 16.0034L0.0500342 15.5552C0.0833904 15.3108 0.158442 14.5937 0.233493 13.9663C0.300205 13.3389 0.383596 12.6951 0.458647 12.2551L1.30089 12.3203C1.76788 12.3529 2.45168 12.4018 2.8186 12.4262C3.18551 12.4425 3.71087 12.4833 3.98606 12.5077C4.26125 12.5322 4.62817 12.6218 4.80329 12.7114C4.97007 12.7929 5.12851 12.8581 5.15353 12.8418C5.17854 12.8337 5.27861 12.2225 5.362 11.481C5.45373 10.7395 5.58716 9.6558 5.65387 9.07727C5.72058 8.49059 5.91238 6.88536 6.07082 5.49199C6.22926 4.09862 6.40438 2.61562 6.44608 2.19191C6.49611 1.76819 6.54615 1.34448 6.57116 1.25485C6.60452 1.10818 6.66289 1.09188 7.82202 1.14892L7.9471 0ZM9.08121 2.87637C9.04786 3.14527 8.95613 3.99269 8.8644 4.75049C8.77267 5.51644 8.60589 6.9424 8.49748 7.92835C8.38073 8.9143 8.21395 10.3647 8.11389 11.147C8.02216 11.9292 7.91375 12.907 7.86371 13.3063C7.82202 13.7137 7.73029 14.5367 7.65524 15.1396C7.58853 15.7426 7.4551 16.8589 7.36337 17.6086C7.27164 18.3582 7.19659 19.0346 7.19659 19.116C7.20493 19.2464 7.13822 19.2464 6.4294 19.1894C5.87902 19.1405 5.54546 19.0672 5.26193 18.9205C5.04512 18.8146 4.84498 18.7249 4.81996 18.7249C4.80329 18.7249 4.76993 18.8879 4.76159 19.0835L4.73657 19.4501L5.87902 19.9879C5.80397 20.4931 5.76228 20.9005 5.72892 21.2102L5.67055 21.7806L6.82133 22.3183C6.7296 23.1658 6.67957 23.5732 6.64621 23.7769L6.59618 24.1436C7.74697 24.6569 7.78032 24.6895 7.73863 24.9014C7.71361 25.0236 7.66358 25.4229 7.63022 25.7895L7.57185 26.4659C8.08887 26.5229 9.04786 26.5799 10.0319 26.6288C11.0242 26.6777 12.225 26.7348 12.7004 26.7592C13.184 26.7836 14.0513 26.8325 14.6183 26.8651C15.1937 26.9059 15.6691 26.9303 15.6857 26.9222C15.6941 26.9222 15.7608 26.4577 15.8275 25.8955C15.8942 25.3332 15.9776 24.6243 16.0026 24.3065C16.0276 23.9969 16.086 23.6791 16.1277 23.6139C16.1777 23.5243 16.3278 23.4999 16.7448 23.5162C17.2034 23.5325 17.2952 23.508 17.3285 23.3939C17.3452 23.3124 17.4036 22.848 17.4536 22.3509C17.512 21.862 17.587 21.1939 17.6287 20.8679C17.6704 20.542 17.7038 20.2405 17.7038 20.1916C17.7038 20.1427 17.954 20.1183 18.3209 20.1346L18.938 20.1509C19.0881 18.7005 19.2715 17.079 19.4466 15.6204L19.7468 12.9559L18.6211 12.4099L18.7045 11.7173C17.6121 11.7173 17.4703 11.6847 16.9533 11.4158C16.3862 11.1144 16.3695 11.0981 16.3695 10.8047C16.3695 10.5521 16.3362 10.4869 16.1861 10.4543C16.086 10.438 15.8859 10.4136 15.7441 10.4136H15.4939C15.2604 12.5322 15.1687 13.3063 15.1354 13.5018L15.077 13.8604C13.6593 13.787 13.5176 13.7463 13.0172 13.4855C12.5919 13.2574 12.4585 13.1514 12.4919 13.0455C12.5086 12.964 12.5503 12.6625 12.5753 12.3692C12.6086 12.0759 12.7087 11.2529 12.7921 10.5358C12.8838 9.81877 12.9505 9.20764 12.9505 9.17505C12.9505 9.14246 12.7421 9.11801 12.4752 9.13431L11.9915 9.1506C11.5829 12.6218 11.4662 13.6403 11.4578 13.6566C11.4578 13.6648 11.1243 13.6485 10.724 13.6241C10.1236 13.5833 9.8901 13.5263 9.43145 13.2981C9.12291 13.1433 8.8644 13.0048 8.8644 12.9803C8.8644 12.9559 9.07288 11.1144 9.33138 8.88986C9.5899 6.65721 9.86508 4.229 9.94847 3.4875C10.0736 2.46895 10.0819 2.12672 10.0068 2.08598C9.95681 2.05339 9.74834 2.02079 9.55654 2.02079C9.25633 2.02079 9.19796 2.05339 9.1646 2.2082C9.14793 2.30598 9.10623 2.60747 9.08121 2.87637ZM2.80192 15.1234C2.75188 15.5145 2.7352 15.8404 2.76856 15.8567C2.79358 15.873 3.04375 15.9952 3.31894 16.1419C3.81094 16.4026 3.81928 16.4108 3.8026 16.7286C3.79426 17.0464 3.8026 17.0627 4.24457 17.2827L4.69488 17.5027C4.76159 16.9649 4.80329 16.533 4.84498 16.1908L4.90336 15.5634C3.79426 15.0256 3.77758 15.0093 3.77758 14.7159V14.4063H2.88531L2.80192 15.1234Z" fill="#141414"/>
</svg>
