<svg width="28" height="28" viewBox="0 0 28 28" fill="none" xmlns="http://www.w3.org/2000/svg">
<g clip-path="url(#clip0_23460_184)">
<path d="M17.5332 21.5801H14.6094L11.8896 11.4092L11.502 9.95996L11.1172 11.4102L8.39844 21.6348H5.47461L0.547852 6.26367H3.7334L6.55664 17.0547L7.33203 17.0488L10.0029 6.26367H13.0576L15.7285 17.0488L16.5029 17.0547L19.3281 6.25977L22.457 6.21973L17.5332 21.5801Z" fill="#0E0E0E" stroke="#0E0E0E" stroke-width="0.8"/>
<path d="M25.3044 16.7979C26.8607 16.7979 28.0005 17.94 28.0005 19.4952C28.0005 21.0469 26.8607 22.1879 25.3044 22.1879C23.7492 22.1879 22.6094 21.0469 22.6094 19.4952C22.6105 17.94 23.8017 16.7979 25.3044 16.7979Z" fill="#0E0E0E"/>
<path d="M25.3047 17.1982C26.6396 17.1984 27.6006 18.1607 27.6006 19.4951C27.6006 20.8255 26.6402 21.7879 25.3047 21.7881C23.9703 21.7881 23.0098 20.8258 23.0098 19.4951C23.0109 18.1652 24.0187 17.1982 25.3047 17.1982Z" stroke="#0E0E0E" stroke-opacity="0.8" stroke-width="0.8"/>
</g>
<defs>
<clipPath id="clip0_23460_184">
<rect width="28" height="28" fill="white"/>
</clipPath>
</defs>
</svg>
