<svg width="33" height="34" viewBox="0 0 33 34" fill="none" xmlns="http://www.w3.org/2000/svg">
<path fill-rule="evenodd" clip-rule="evenodd" d="M13.2754 1.95669C13.5088 1.80879 13.6638 1.54817 13.6638 1.25135C13.6638 0.790546 13.2903 0.416992 12.8295 0.416992C12.3687 0.416992 11.9951 0.790546 11.9951 1.25135C11.9951 1.70808 12.3621 2.07909 12.8173 2.08562C12.6043 2.18025 12.4228 2.31933 12.2727 2.50288C11.834 3.41184 12.06 4.08975 12.9506 4.53662C12.6057 4.82639 12.3797 5.19142 12.2727 5.63172C12.0461 6.55996 12.2546 7.35954 12.8984 8.03049L13.0027 10.2207C13.1322 11.7918 13.6711 13.1997 14.6193 14.4446C14.0104 14.6054 13.4194 14.814 12.8463 15.0704C10.4988 16.4965 8.76057 18.4608 7.63158 20.963C6.37368 21.3229 5.71314 22.1573 5.64998 23.4661C4.31686 23.0937 3.69109 23.6152 3.77268 25.0305C4.0112 25.5972 4.44577 25.9101 5.07636 25.9691C5.68868 25.8657 6.05371 25.5181 6.17146 24.9262C6.49288 25.0542 6.80577 25.2106 7.11011 25.3955L7.89232 25.552C9.63299 25.3042 10.3978 24.2959 10.1868 22.5274C10.5194 21.9808 10.8323 21.4245 11.1254 20.8587C12.0154 19.6213 13.1105 18.5957 14.4107 17.782C15.4931 17.3232 16.2405 17.6535 16.6531 18.7728C17.0775 21.0328 16.8516 23.223 15.9751 25.3434C15.6253 25.6063 15.3298 25.9192 15.0886 26.282C14.5771 28.0657 15.2201 29.1955 17.0181 29.6716C16.6016 30.9238 17.0536 31.6191 18.3739 31.7575L18.3526 31.7821L18.3373 31.8001C18.1577 31.9531 18.0439 32.181 18.0439 32.4354C18.0439 32.8962 18.4174 33.2698 18.8782 33.2698C19.339 33.2698 19.7126 32.8962 19.7126 32.4354C19.7126 32.0835 19.4947 31.7825 19.1866 31.6599C19.1934 31.6544 19.197 31.6511 19.1964 31.6487C19.1956 31.645 19.1852 31.6436 19.1625 31.6405L19.1625 31.6405H19.1625L19.1625 31.6405C19.1474 31.6384 19.127 31.6356 19.1003 31.6309C19.0678 31.622 19.0345 31.6149 19.0004 31.6099C18.9449 31.5965 18.8758 31.5772 18.7911 31.5489C19.0042 31.36 19.1606 31.134 19.2604 30.871C19.4346 30.1096 19.2086 29.5186 18.5825 29.098C18.759 28.9041 18.9154 28.6955 19.0518 28.4722C19.2669 27.6503 19.2495 26.8332 18.9997 26.0213C19.3455 24.8437 19.6063 23.6443 19.7819 22.4231C20.0818 20.3472 19.7863 18.3657 18.8954 16.4783C21.0952 16.0567 22.9377 15.0137 24.423 13.3495C26.0381 13.2738 26.942 12.4394 27.1346 10.8464C27.3219 10.9262 27.513 10.9958 27.7083 11.055C28.7543 10.8048 29.1709 10.1772 28.9578 9.17216C29.1057 9.30532 29.3014 9.38636 29.516 9.38636C29.9768 9.38636 30.3504 9.01281 30.3504 8.55201C30.3504 8.09121 29.9768 7.71765 29.516 7.71765C29.0552 7.71765 28.6816 8.09121 28.6816 8.55201C28.6816 8.64241 28.696 8.72946 28.7226 8.81099C28.5836 8.69899 28.4367 8.59527 28.2819 8.49981C27.3685 8.20096 26.7601 8.49647 26.4567 9.38632C26.2546 9.11454 25.9939 8.92333 25.6745 8.8127C23.6734 8.48426 22.6479 9.336 22.5978 11.3679C21.7792 12.238 20.8232 12.916 19.7297 13.4017C18.8611 13.7759 18.0267 13.7064 17.2267 13.1931C16.251 12.2877 15.7121 11.1579 15.6101 9.8035C15.4036 8.93254 15.6122 8.20248 16.2359 7.61331C16.9978 5.6857 16.3895 4.46893 14.4107 3.963C14.7871 2.80289 14.4086 2.13412 13.2754 1.95669ZM19.5988 7.85122C18.9722 7.65726 18.2719 7.68593 17.7069 8.0191C17.1476 8.3488 16.7418 8.85667 16.4893 9.54271C16.2636 10.4307 16.3721 11.2089 16.8149 11.8773C17.127 12.3485 17.6245 12.6705 18.1675 12.8271C19.2876 13.15 20.1921 12.8629 20.881 11.9658C21.2846 11.4402 21.4739 10.7684 21.417 10.1082C21.3169 8.94771 20.7108 8.19538 19.5988 7.85122ZM3.02568 26.282C3.48649 26.282 3.86004 25.9085 3.86004 25.4477C3.86004 24.9869 3.48649 24.6133 3.02568 24.6133C2.56488 24.6133 2.19133 24.9869 2.19133 25.4477C2.19133 25.9085 2.56488 26.282 3.02568 26.282Z" fill="#191919"/>
</svg>
