<svg width="16" height="16" viewBox="0 0 16 16" fill="none" xmlns="http://www.w3.org/2000/svg">
<g clip-path="url(#clip0_23443_608)">
<path fill-rule="evenodd" clip-rule="evenodd" d="M13.7715 4.38959C14.4967 4.08421 15.2743 4.69749 15.1462 5.47395L13.6336 14.6451C13.4877 15.5294 12.5165 16.0368 11.7053 15.5961C11.0264 15.2274 10.0192 14.6598 9.11145 14.0667C8.65819 13.7705 7.27025 12.8208 7.44085 12.1447C7.58672 11.5666 9.91999 9.39469 11.2533 8.10303C11.7771 7.59565 11.5385 7.30253 10.92 7.76969C9.38559 8.92856 6.92213 10.6905 6.10749 11.1864C5.38874 11.6238 5.01346 11.6985 4.56583 11.6238C3.74841 11.4876 2.99056 11.2767 2.37184 11.0202C1.53559 10.6736 1.57633 9.52436 2.37127 9.18969L13.7715 4.38959Z" fill="#0E0E0E"/>
</g>
<defs>
<clipPath id="clip0_23443_608">
<rect width="16" height="16" fill="white"/>
</clipPath>
</defs>
</svg>
